<?xml version="1.0" encoding="UTF-8"?>
<svg id="Layer_2" data-name="Layer 2" xmlns="http://www.w3.org/2000/svg" viewBox="0 0 928.5 126">
  <defs>
    <style>
      .cls-1 {
        fill: #032b1e;
      }
    </style>
  </defs>
  <g id="Layer_1-2" data-name="Layer 1">
    <g>
      <g>
        <path class="cls-1" d="M211.1,26.55h-31.1v72.9h13.3v-28.6h17.8c15.45,0,24.31-8.09,24.31-22.2s-8.86-22.1-24.31-22.1ZM193.3,38.05h17.3c7.85,0,11.5,3.37,11.5,10.6s-3.65,10.6-11.5,10.6h-17.3v-21.2Z"/>
        <rect class="cls-1" x="243.1" y="26.55" width="13.3" height="72.9"/>
        <polygon class="cls-1" points="330.57 99.45 314.94 99.45 291.83 66.96 281.6 77.93 281.6 99.45 268.3 99.45 268.3 26.55 281.6 26.55 281.6 60.75 313 26.55 329.1 26.55 300.6 57.61 330.57 99.45"/>
        <polygon class="cls-1" points="422.5 26.55 404.25 99.45 390.66 99.45 376.4 45.13 362.24 99.45 348.55 99.45 330.4 26.55 344.06 26.55 355.85 80.07 369.76 26.55 383.04 26.55 397.05 80.08 408.84 26.55 422.5 26.55"/>
        <polygon class="cls-1" points="483 87.95 483 99.45 428.9 99.45 428.9 26.55 482 26.55 482 38.05 442.2 38.05 442.2 56.05 477.1 56.05 477.1 67.65 442.2 67.65 442.2 87.95 483 87.95"/>
        <polygon class="cls-1" points="566.4 87.95 566.4 99.45 512.3 99.45 512.3 26.55 565.4 26.55 565.4 38.05 525.6 38.05 525.6 56.05 560.5 56.05 560.5 67.65 525.6 67.65 525.6 87.95 566.4 87.95"/>
        <path class="cls-1" d="M630.3,79.35c0,13.12-10.72,21.6-27.3,21.6-18.88,0-31.52-10.19-32.2-25.97l-.04-.73h13.29l.04.66c.62,9.31,7.33,14.44,18.91,14.44,8.9,0,14-3.46,14-9.5,0-8.04-5.76-9.47-19.67-12.92-12.38-3.09-23.83-7.83-23.83-21.38,0-12.84,9.75-20.5,26.1-20.5s27.81,9.03,28.8,23.55l.05.75h-13.27l-.08-.61c-1.07-8.13-6.15-12.09-15.5-12.09-8.08,0-12.9,2.92-12.9,7.8,0,6.99,5.71,8.42,15.18,10.78l.99.24c14.72,3.75,27.43,7,27.43,23.88Z"/>
        <polygon class="cls-1" points="690.9 26.55 690.9 38.05 668.1 38.05 668.1 99.45 654.8 99.45 654.8 38.05 631.9 38.05 631.9 26.55 690.9 26.55"/>
        <path class="cls-1" d="M724.09,26.55h-13.48l-26.82,72.9h13.61l5.8-16.9h28.2l5.8,16.9h13.6l-26.71-72.9ZM706.97,71.25l10.43-31.18,10.33,31.18h-20.76Z"/>
        <polygon class="cls-1" points="802.8 26.55 802.8 38.05 780 38.05 780 99.45 766.7 99.45 766.7 38.05 743.79 38.05 743.79 26.55 802.8 26.55"/>
        <polygon class="cls-1" points="864.6 87.95 864.6 99.45 810.5 99.45 810.5 26.55 863.6 26.55 863.6 38.05 823.8 38.05 823.8 56.05 858.7 56.05 858.7 67.65 823.8 67.65 823.8 87.95 864.6 87.95"/>
        <path class="cls-1" d="M928.5,79.35c0,13.12-10.72,21.6-27.3,21.6-18.88,0-31.52-10.19-32.2-25.97l-.04-.73h13.29l.04.66c.62,9.31,7.33,14.44,18.91,14.44,8.89,0,14-3.46,14-9.5,0-8.04-5.76-9.47-19.67-12.92-12.38-3.09-23.84-7.83-23.84-21.38,0-12.84,9.76-20.5,26.11-20.5s27.81,9.03,28.8,23.55l.05.75h-13.27l-.08-.61c-1.08-8.13-6.15-12.09-15.5-12.09-8.08,0-12.9,2.92-12.9,7.8,0,6.99,5.71,8.42,15.18,10.78l.99.24c14.72,3.75,27.43,7,27.43,23.88Z"/>
      </g>
      <g>
        <g>
          <polygon class="cls-1" points="57.75 110.25 57.75 126 0 126 0 76.51 15.75 63.01 15.75 110.25 57.75 110.25"/>
          <polygon class="cls-1" points="57.75 0 57.75 15.75 15.75 15.75 15.75 62.99 0 49.49 0 0 57.75 0"/>
        </g>
        <g>
          <polygon class="cls-1" points="68.25 110.25 68.25 126 126 126 126 76.51 110.25 63.01 110.25 110.25 68.25 110.25"/>
          <polygon class="cls-1" points="68.25 0 68.25 15.75 110.25 15.75 110.25 62.99 126 49.49 126 0 68.25 0"/>
        </g>
        <rect class="cls-1" x="31.5" y="31.5" width="63" height="63"/>
        <line class="cls-1" x1="15.76" y1="63" x2="15.75" y2="62.99"/>
        <line class="cls-1" x1="15.76" y1="63" x2="15.75" y2="63.01"/>
      </g>
    </g>
  </g>
</svg>