<?xml version="1.0" encoding="UTF-8"?>
<svg id="Layer_2" data-name="Layer 2" xmlns="http://www.w3.org/2000/svg" viewBox="0 0 2000 271.41">
  <defs>
    <style>
      .cls-1 {
        fill: #c7ebd1;
      }
    </style>
  </defs>
  <g id="Layer_1-2" data-name="Layer 1">
    <g>
      <g>
        <path class="cls-1" d="M454.71,57.19h-66.99v157.03h28.65v-61.6h38.34c33.28,0,52.36-17.43,52.36-47.82s-19.08-47.6-52.36-47.6ZM416.37,81.96h37.26c16.91,0,24.77,7.26,24.77,22.83s-7.86,22.83-24.77,22.83h-37.26v-45.66Z"/>
        <rect class="cls-1" x="523.64" y="57.19" width="28.65" height="157.03"/>
        <polygon class="cls-1" points="712.05 214.22 678.38 214.22 628.61 144.23 606.57 167.86 606.57 214.22 577.92 214.22 577.92 57.19 606.57 57.19 606.57 130.86 674.21 57.19 708.89 57.19 647.5 124.09 712.05 214.22"/>
        <polygon class="cls-1" points="910.07 57.19 870.76 214.22 841.49 214.22 810.77 97.21 780.27 214.22 750.78 214.22 711.69 57.19 741.11 57.19 766.51 172.47 796.47 57.19 825.07 57.19 855.25 172.49 880.65 57.19 910.07 57.19"/>
        <polygon class="cls-1" points="1040.39 189.45 1040.39 214.22 923.86 214.22 923.86 57.19 1038.23 57.19 1038.23 81.96 952.5 81.96 952.5 120.73 1027.68 120.73 1027.68 145.72 952.5 145.72 952.5 189.45 1040.39 189.45"/>
        <polygon class="cls-1" points="1220.03 189.45 1220.03 214.22 1103.5 214.22 1103.5 57.19 1217.88 57.19 1217.88 81.96 1132.15 81.96 1132.15 120.73 1207.32 120.73 1207.32 145.72 1132.15 145.72 1132.15 189.45 1220.03 189.45"/>
        <path class="cls-1" d="M1357.67,170.92c0,28.26-23.09,46.53-58.8,46.53-40.67,0-67.89-21.95-69.36-55.94l-.09-1.57h28.63l.09,1.42c1.34,20.05,15.79,31.1,40.73,31.1,19.17,0,30.16-7.45,30.16-20.46,0-17.32-12.41-20.4-42.37-27.83-26.67-6.66-51.33-16.87-51.33-46.05,0-27.66,21-44.16,56.22-44.16s59.9,19.45,62.04,50.73l.11,1.62h-28.58l-.17-1.31c-2.3-17.51-13.25-26.04-33.39-26.04-17.4,0-27.79,6.29-27.79,16.8,0,15.06,12.3,18.14,32.7,23.22l2.13.52c31.71,8.08,59.08,15.08,59.08,51.44Z"/>
        <polygon class="cls-1" points="1488.21 57.19 1488.21 81.96 1439.1 81.96 1439.1 214.22 1410.45 214.22 1410.45 81.96 1361.12 81.96 1361.12 57.19 1488.21 57.19"/>
        <path class="cls-1" d="M1559.7,57.19h-29.04l-57.77,157.03h29.32l12.49-36.4h60.74l12.49,36.4h29.29l-57.53-157.03ZM1522.82,153.47l22.47-67.16,22.25,67.16h-44.72Z"/>
        <polygon class="cls-1" points="1729.24 57.19 1729.24 81.96 1680.13 81.96 1680.13 214.22 1651.48 214.22 1651.48 81.96 1602.13 81.96 1602.13 57.19 1729.24 57.19"/>
        <polygon class="cls-1" points="1862.36 189.45 1862.36 214.22 1745.83 214.22 1745.83 57.19 1860.2 57.19 1860.2 81.96 1774.48 81.96 1774.48 120.73 1849.65 120.73 1849.65 145.72 1774.48 145.72 1774.48 189.45 1862.36 189.45"/>
        <path class="cls-1" d="M2000,170.92c0,28.26-23.09,46.53-58.8,46.53-40.67,0-67.89-21.95-69.36-55.94l-.09-1.57h28.63l.09,1.42c1.34,20.05,15.79,31.1,40.73,31.1,19.15,0,30.16-7.45,30.16-20.46,0-17.32-12.41-20.4-42.37-27.83-26.67-6.66-51.35-16.87-51.35-46.05,0-27.66,21.02-44.16,56.24-44.16s59.9,19.45,62.04,50.73l.11,1.62h-28.58l-.17-1.31c-2.33-17.51-13.25-26.04-33.39-26.04-17.4,0-27.79,6.29-27.79,16.8,0,15.06,12.3,18.14,32.7,23.22l2.13.52c31.71,8.08,59.08,15.08,59.08,51.44Z"/>
      </g>
      <g>
        <g>
          <polygon class="cls-1" points="124.39 237.48 124.39 271.41 0 271.41 0 164.8 33.93 135.72 33.93 237.48 124.39 237.48"/>
          <polygon class="cls-1" points="124.39 0 124.39 33.93 33.93 33.93 33.93 135.68 0 106.6 0 0 124.39 0"/>
        </g>
        <g>
          <polygon class="cls-1" points="147.01 237.48 147.01 271.41 271.41 271.41 271.41 164.8 237.48 135.72 237.48 237.48 147.01 237.48"/>
          <polygon class="cls-1" points="147.01 0 147.01 33.93 237.48 33.93 237.48 135.68 271.41 106.6 271.41 0 147.01 0"/>
        </g>
        <rect class="cls-1" x="67.85" y="67.85" width="135.7" height="135.7"/>
        <line class="cls-1" x1="33.95" y1="135.7" x2="33.93" y2="135.68"/>
        <line class="cls-1" x1="33.95" y1="135.7" x2="33.93" y2="135.72"/>
      </g>
    </g>
  </g>
</svg>