<?xml version="1.0" encoding="UTF-8"?>
<svg id="Layer_2" data-name="Layer 2" xmlns="http://www.w3.org/2000/svg" viewBox="0 0 500 280">
  <defs>
    <style>
      .cls-1 {
        opacity: .8;
      }

      .cls-2 {
        fill: #e0e4e0;
      }
    </style>
  </defs>
  <g id="Layer_1-2" data-name="Layer 1">
    <g class="cls-1">
      <path class="cls-2" d="M0,.33v-.33h500v280h-.39l-.02-9.73c-2.37-5.86-7.01-10.67-12.99-14.21-9.5-5.63-23.68,3.13-33.81,4.62-10.42,1.53-22.82.19-30.1-6.83-3.59-3.46-4.75-8.18-9.4-10.95-8.99-5.36-20.9-3-31.19-3.56-7.04-.38-14.05-2.75-21.16-1.23-7.96,1.7-8.77,9.39-14.51,13.27-7.26,4.91-11.98,3.64-8.51,13.49,1.85,5.25,4.96,10.23,7.76,15.14h-1.97c-2.53-5.37-6.35-10.97-7.99-16.6-3.03-10.42,6.52-9.22,12.13-15.13,3.53-3.71,4.64-8.5,10.42-10.75,7.63-2.97,16.37.1,24.19.51,12.12.63,27.9-2.47,35.97,7.49,5.58,6.89,6.41,10.93,17.4,13.49,14.14,3.29,22.31-1.62,34.66-4.94,10.23-2.75,15.63-.84,23.03,5.1l6.09,7.28v-20.83h-5.71c-4.71,0-14.14,4.41-18.83,6.01-13.78,4.69-28.61,6.8-42.12.21-8.78-4.28-9.8-8.27-14.37-15.04-9.72-14.4-30.52-9.44-46.74-10.34-10.05-.56-21.9-5.35-30.89.81-4.78,3.27-6.59,9.24-10.81,12.74-4.06,3.37-13.76,5.46-15,10.55-1.13,4.62,4.47,15.19,6.84,19.75,1.71,3.29,3.68,6.49,5.58,9.69h-1.97c-3.75-7.33-8.65-14.82-11.13-22.56-3.66-11.45,3.04-11.44,11.88-16.65,9.09-5.35,8.04-15.25,21.28-17.51,8.65-1.48,15.88,1.39,24.22,1.85,12.84.71,27.97-2.25,39.55,3.48,9.69,4.79,9.4,12.94,16.96,18.82,11.7,9.11,28.96,8.47,43.02,4.04,5.66-1.78,17.04-7.19,22.54-7.19h5.71v-8.93c-5.41-.7-10.87-.44-16.14.83-7.99,1.92-14.49,7.28-22.69,8.39-7.45,1.01-17.98-1.96-24.43-5.19-8.27-4.15-5.16-9.14-10.2-14.57-12.45-13.42-38.69-6.87-55.76-9.05-26.16-3.34-40.01-27.58-26.61-46.95,10.13-14.64,45.57-26.85,65.08-27.66,18.87-.78,36.54,5.62,54.84,7.83,12.09,1.46,24.91.35,35.9,5.39v-9.92c-9.43-2.37-19.1-3.77-28.94-4.29-3-.16-6.07.15-9.07.01-12.29-.58-21.04-6.09-33.83-6.64-22.35-.97-53.09,2.32-71.83,13.1-8.06,4.64-16.83,15.23-27.81,12.05-5.11-1.48-6.37-7.82-10.21-7.89-4.51-.09-5.67,1.76-10.41-1.24-6.46-4.09-15.92-22.23-16.56-29.07-2.26-24.02,37.74-38.09,61.22-39.83,4.88-.36,9.98-.05,14.86-.75,6.39-.92,11.72-4.47,18.27-4.82s13.54,2.25,19.74,3.48c14.19,2.82,45.16,6.36,51.85-8.17,1.91-4.15,1.42-8.18,2.21-12.36,1.29-6.86,7.35-3.1,11.98-6.8,2.94-2.35.8-5.85,3.63-7.95,5.2-3.87,19.11,2.18,24.9,3.64v-7.27c-10.04-1.18-18.07-11.21-28.95-7.28-6.41,2.32-3.24,9.17-7.08,12.24-4.28,3.41-10.33-1.63-13.75,3.66-3.96,6.13,2.86,12.68-4.75,20.15-8.56,8.4-22.52,6.71-33.91,4.34-8-1.67-18.35-4.26-21.2-11.62-2.16-5.59,2.03-8.06,2.18-12.72.19-5.85-7.35-11.53-10.21-16.57-6.44-11.33,1.04-22.91,9.79-31.53h-11.02c-3.92,7.78-12.06,15.24-12.99,23.97-1.66,15.71,21.05,21.55,10.3,39.72-10.39,17.56-35.61,7.44-53.12,11.92-18.16,4.64-28.43,18.86-49.85,16.25-22.48-2.75-10.84-17.66-20.16-27.7-8.62-9.3-24.64-5.44-32.04-13.09-2.08-2.15-3-5.45-5.33-7.43-5.08-4.3-21.1-4.33-19.46-13.04.69-3.66,10.33-6.68,13.72-8.97,8.4-5.69,4.85-13.5,18.94-18.48l11.41-3.15h-23.43c-.42,0-6.59,2.93-7.4,3.37-7.84,4.3-4.84,9.81-9.92,14.48-5.97,5.5-23.77,13.29-23.65,20.99.11,7.46,11.24,5.87,17.07,7.34,7.93,1.99,11.86,10.07,19.3,12.71.1,2.53-.92,5.57,1.24,7.72,3.13,3.11,7.78.09,11.21-.84,5.66-1.53,12.53-1.69,16.04,3.09,3.29,4.48.3,5.95-1.04,9.83-1.34,3.89,2.7,4.21,3.29,7.78.93,5.67-5.96,12.48,3.66,14.77,8.46,2.02,18.92,0,24,7.95,4.38,6.85-.12,19.09-8.86,22.1-4.01,1.38-9.12,1.19-12.61,3.63-2.13,1.49-2.78,4.07-4.42,5.88-3.07,3.4-8.48,4.58-12.19,7.29-5.53,4.04-6.66,11.26-11.22,16.03-6.24,6.54-19.93,9.46-18.84,19.47.23,2.09,1.49,4.57,1.55,6.65.12,3.73-3.54,12.26,1.02,14.66,1.2.63,3.16.91,4.49,1.52,6.06,2.76,7.99,9.98,13.4,12.88,5.85,3.14,16.89.45,15.71,9.95-.84,6.79-18.52,14.6-25.33,17.74-10.01,4.61-25.11,10.73-36.09,13-9.25,1.91-6-2.81-10.42-6.12-5.47-4.09-13.14-.72-19.35-.36-14.87.86-25.22-9.9-35.79-16.81-6.41-4.19-13.51-7.84-21.06-10.41-3.59-1.22-10.35-2.39-13.11-3.87-5.46-2.92-2.11-8.94-4.3-13.24-3.9-7.64-13.75-5.62-21.64-6.63-9.04-1.15-19.18-5.49-28.07-1.57-2.8,1.23-5.55,4.1-8.75,4.56-5.41.78-11.4-3.35-16.64-4.22v-1.65c4.7,1.13,11.73,5.31,16.56,4.48,2.71-.47,4.67-2.62,6.94-3.76,10.76-5.41,21.96.28,33.05,1.22,7.72.66,15.22-.77,19.59,6.36,2.29,3.73.88,5.94,1.53,9.63.86,4.9,6.93,4.74,11.52,6.2,10.04,3.19,17.98,6.97,26.36,12.58,8.71,5.82,18.85,15.37,30.7,15.87,7.53.32,15.64-3.98,22.79.04,4.36,2.46,2.44,7.7,8.55,6.74,11.62-1.83,32.57-10.88,43.01-16.11,5.39-2.7,17.78-8.44,18.38-13.98.76-6.97-6.73-5.9-12.12-7.35-8.19-2.2-9.57-11.12-16.61-14.15-1.2-.52-2.53-.68-3.69-1.2-6.25-2.8-2.2-11.22-2.19-15.65,0-2.18-1.31-4.57-1.57-6.65-1.38-10.94,11.71-13.39,18.45-19.81,4.97-4.73,6.12-12.33,11.61-16.69,3.22-2.56,8.56-3.84,11.49-6.39,2.64-2.3,3.08-5.61,6.46-7.63,6.37-3.8,13.2-.78,18.4-8.02,5.4-7.51,5.37-17.86-6.14-20.83-5.31-1.37-17.51-.68-20.5-4.94-2.53-3.61,1.48-9.04.7-13.15-.41-2.18-3.64-3.74-3.77-6.02-.24-4.34,7.17-8.42-.73-13.01-6.2-3.6-11.85.46-17.43,1.56-6.44,1.27-8.85-2.07-9.15-7.02-.04-.69.75-1.43.21-2.15-.19-.26-3.77-2.23-4.55-2.81-4.45-3.35-7.25-7.91-13.47-9.52-5.78-1.5-15.02-.06-17.72-5.95-4.57-9.99,17.77-18.62,23.91-25.03,3.43-3.58,2.51-8.48,6.49-12.07l8.26-4.47h-19.88c-7.26,5.24-8.4,13.95-15.98,18.98-4.24,2.81-10.66,4.5-14.35,7.79-2.98,2.65-3.78,6.39-5.51,9.59-11.31,20.91-41.18,13.44-60.55,22.88-6.39,3.11-11.51,8.15-17.47,11.78-20.42,12.43-46.84,11.79-69.16,3.32-4.3-1.63-8.25-3.81-12.46-5.57v-1.65c2.49.94,4.68,2.39,7.08,3.48,21.18,9.63,46.7,12.43,68.38,2.2,9.71-4.58,16.41-12.55,26.64-16.31,16.24-5.98,43.65-3.03,53.97-17.16,2.79-3.82,3.74-8.92,6.93-12.36,3.66-3.94,9.07-5.32,13.74-7.97,8.38-4.76,9.78-12.8,16.18-18.98h-23.82c-4.56,4.22-5.94,10.88-10.44,15.03s-12.06,5.51-15.81,10.52c-2.67,3.56-3.45,7.7-6.81,11.14-10.97,11.23-31.6,8.59-46.14,13.82-7.32,2.63-11.42,7.21-17.49,11.1-21.87,14-49.94,11.44-72.4-.13v-1.65c20.39,11.12,47.87,14.45,68.79,2.39,7.25-4.18,12.38-10.09,20.71-13.03,14.48-5.09,37.75-2.64,46.89-15.17,2.42-3.32,3.31-7.45,6.33-10.56,4.04-4.15,11.09-5.7,15.15-9.76,3.86-3.85,5.46-9.6,9.07-13.71h-24.02c-2.86,5.28-4.6,10.98-10.05,14.87-2.57,1.83-6.23,3.29-8.61,5.33-3.5,3-4.5,7.35-7.39,10.65-9.07,10.36-28.36,7.97-41.02,12.83-6.31,2.42-9.77,6.78-15.08,10.15-18.17,11.51-41.91,9.73-60.76.39v-1.65c17.91,9.47,41.44,11.51,59.18.6,5.76-3.54,9.82-8.45,16.54-10.91,12.43-4.55,31.61-2.36,40.2-12.53,2.54-3,3.39-6.65,6.32-9.57,3.7-3.68,9.58-5.32,12.96-9.28,2.73-3.2,3.8-7.46,6.14-10.88h-23.62c-1.54,3.48-2.63,7.55-5.35,10.55s-7.21,4.86-10,7.81c-2.2,2.32-3.45,5.47-5.71,7.76-8.64,8.77-23.83,6.06-34.93,10.67-5.59,2.32-8.45,6.97-13.49,9.83-14.72,8.35-33.13,7.36-48.24.32v-1.65c14.1,7.06,30.59,8.26,45.15,1.38,7.13-3.37,9.54-8.8,17.31-11.58,10.8-3.87,26.29-1.83,33.77-10.66,2.05-2.42,3.22-5.3,5.54-7.58,2.75-2.7,7.39-4.75,9.82-7.62,2.17-2.56,3.07-6.36,4.55-9.24h-23.03c-1.23,1.87-1.32,4.23-2.37,6.28-1.9,3.69-5.99,5.85-8.84,8.77-3.74,3.83-4.68,7.17-10.62,9.59-8.11,3.3-19.7,1.74-26.6,6.76-2.89,2.1-4.38,5.27-7.54,7.22-10.23,6.33-26.16,5.65-37.14,1.05v-1.65c10.57,4.95,25.19,5.57,35.56-.06,3.56-1.93,4.77-5.15,7.74-7.38,8.71-6.54,23.72-2.83,31.9-9.9,2.22-1.92,3.8-4.83,5.91-6.94,2.62-2.63,6.28-4.56,8.06-7.78,1.01-1.83,1.33-4.06,2.17-5.95h-22.64l-.53.55c-.02,1.44-.36,2.82-.94,4.17-1.41,3.28-9.83,11.77-13.43,13.52-7.39,3.6-18.69,1.11-24.05,6.91-3.44,3.73-2.01,5.85-8.58,7.67s-14.53,1.66-21.17-.75v-1.32c6.46,2.14,12.85,2.69,19.59,1.08,7.55-1.8,5.22-3.88,9.16-7.85,5.79-5.84,17.29-3.36,24.67-7.05,2.94-1.47,10.82-9.6,12.13-12.3.73-1.51.83-3.09,1.38-4.63h-22.44c-.12,6.72-6.25,12.89-14.15,14.07-4.35.65-11.68-.22-14.52,3.34-2.4,3-.28,7.18-6.56,7.71-2.99.25-6.36,0-9.25-.66v-1.32c2.85.62,6.31.94,9.25.66,4.72-.45,3.05-4.09,4.99-6.72,3.61-4.9,11.71-3.44,17.34-4.61,6.11-1.28,10.99-6.75,11.35-11.97L0,.33ZM264.96.33h-17.52c-1.03,0-14.81,3.91-16.6,4.57-12.99,4.78-9.8,12.9-19.14,18.64-2.54,1.56-11.11,5.02-11.92,7.18-2.53,6.78,13.19,8.56,17.73,11.6,3.43,2.3,3.73,4.96,5.94,7.57,6.98,8.26,25.26,3.77,33.57,14.79,6.93,9.19-.65,22.76,15.41,25.74,23.47,4.34,33.66-11.78,53.64-16.14,16.81-3.66,40.23,5.47,50.38-10.59,10.75-17.01-12-23.61-10.3-39.4.94-8.76,8.51-16.36,12.99-23.97h-11.81c-2.99,10.84-17.68,19.75-11.17,31.69,4.51,8.27,11.43,12.1,5.41,22.48-7.92,13.66-26.61,7.1-40.32,9.45-15.41,2.64-23.02,13.66-41.02,11-17.9-2.65-8.85-14.65-19.2-22.23-6.55-4.8-17.66-3.53-22.61-8.79-1.95-2.07-2.35-4.69-4.95-6.42-3.48-2.32-10.11-2.69-12.54-6-4.22-5.74,5.95-8.08,9.91-10.75,4.55-3.07,5.06-8.09,9.13-11.17,7-5.31,17.88-4.37,24.99-9.27ZM281.89.33h-13.98c-.37,0-4.75,2.81-6.23,3.36-7.28,2.7-17.33,2.81-22.41,8.62-2.21,2.54-3.13,6.04-5.82,8.34-3.78,3.23-17.84,6.45-9.18,11.68,4.47,2.7,9.2,1.94,12.65,6.57,2.68,3.6,2.34,5.23,7.75,7.05,8.53,2.88,17.26,2.24,21.94,10.67,2.86,5.15,1.47,12.98,8.47,15.69,19.23,7.45,32.03-9.03,49.51-10.19,12.51-.83,29.57,3.63,35.95-8.82,6.52-12.72-8.21-17.26-7.79-27.68.37-9.1,10.4-16.76,13-25.3h-18.11c1.22,1.68,4.02,2.55,3.95,4.78-.15,4.97-7.2,11.31-9.26,16.05-3.76,8.66,4.33,10.98,4.48,18.05.06,2.98-2.02,7.25-4.53,9.35-6.58,5.5-16.8,3.1-25.1,3.71-12.95.95-20.66,9.7-35.39,4.51-6.14-2.17-5.67-6.21-8.64-10.27-5.27-7.21-15.56-5.49-19.54-10.37-.9-1.1-1.41-2.96-2.42-3.92-2.03-1.92-6.94-2.33-8.61-4.67-3.24-4.55,5.76-6.47,8.62-8.86,1.68-1.41,2.65-3.85,4.15-5.44,4.67-4.93,12.31-4.52,18.29-7.12,3.12-1.36,5.65-3.85,8.25-5.8ZM285.32.4c-4.26,1.64-7.15,5.33-11.29,7.05-4.93,2.05-12.11,2.27-16.29,5.5-2.61,2.01-3.32,5.01-6.36,7.23-1.79,1.3-6.67,3.24-7.65,4.5-2.1,2.72,5.72,4.74,7.45,5.9,2.26,1.51,2.32,3.09,3.76,4.78,2.69,3.17,7.58,3.07,11.47,4.59,2.5.97,6.38,3.67,7.93,5.57,2.8,3.43,2.39,7.86,7.55,9.86,13.81,5.35,22.44-3.46,34.89-4.42,9.25-.71,21.7,2.5,26.81-6.25,5.31-9.09-5.02-12.62-3.78-21.03.72-4.9,6.56-10.17,8.81-14.75.58-1.19,1.77-3.73,1.02-4.8-.66-.94-4.25-3.71-5.73-3.79l-58.59.08ZM499.61,38.35v-9.59c-3.13.12-6.25-.26-9.26-.99-8.38-2.03-17.43-9.41-26.59-5.48-7.18,3.08-6.06,13.43-14.16,16.21-2.99,1.03-6.43.9-8.83,3.16-4.6,4.33-2.98,12.11-7.89,17.17-6.02,6.2-14.83,5.72-22.78,2.59-13.78-5.42-5.81-13.27-8.8-22.69-1.87-5.89-8.79-8.98-11.02-14.88-3.25-8.59,1.06-17.33,8.16-23.54l-4.64.07c-7.59,7.4-14.88,16.75-12.1,27.05,2.03,7.52,12.72,13.69,11.97,21.6-.49,5.15-4.92,7.19-1.41,13.17,3.74,6.37,15.15,8.58,22.79,9.95,10.25,1.83,21.98,2.54,29.26-5.06,6.57-6.86-.04-13.65,4.19-19.63.52-.73,2.54-2.35,3.49-2.69,3.52-1.26,7.4.92,10.25-.98,3.49-2.32.68-8.92,6.8-12.15,10.7-5.64,20.71,5.12,30.59,6.68ZM412.6.33h-11.61c-7.27,5.43-11.12,12.24-9.93,20.57,1.19,8.31,11.5,11.29,12.48,20.59.44,4.17-1.17,9.91.31,13.63,2.05,5.15,14.82,8.19,20.58,6.88,14.52-3.3,7.96-17.74,17.43-22.72,2.25-1.19,4.29-1.08,6.56-1.76,8.19-2.46,6.69-13.51,15.23-16.64,12.44-4.56,23.34,7.95,35.96,6.56v-8.26c-7.23-.04-15.01-.15-21.86-2.31-8.26-2.6-14.86-9.19-16.33-16.54h-8.66c1.65,9.25.19,19.74-9.72,25.39-3.27,1.87-7.47,2.93-10.55,5.03-4.52,3.09-9.28,12.92-16.88,9.2-5.05-2.47-3.37-9.3-5.36-13.35-1.26-2.55-4.08-4.84-5.47-7.3-4.32-7.64,1.6-13.82,7.83-18.97ZM428.35.33h-12.8c-6.45,4.3-13.3,10.59-9.59,17.97,1.54,3.07,5.02,5.68,6.26,8.96,1.33,3.52.07,12.08,6.47,12.11,5.45.03,8.56-6.58,12.22-9.27,2.87-2.11,6.81-3.18,10-4.83,7.99-4.14,10.72-10.82,11.02-18.45l-.93-6.16-9.27-.32c.27,4.92-1.53,10.5-4.95,14.52-2.7,3.17-8.39,6.05-12.19,2.35-4.29-4.19.21-13.03,3.75-16.87ZM440.16.33h-9.65c-1.56,1.78-3.32,3.55-4.32,5.63-1.64,3.41-3.85,11.77,3.15,11.59,7.08-.18,11.58-12.24,10.82-17.22ZM499.61,7.6c-.46.12-.78.33-1.33.31-7.82-.35-16.47-2.02-21.31-7.58h-13.98c1.51,6.74,7.57,12.74,15.15,15.21,6.73,2.2,14.34,2.28,21.47,2.31V7.6ZM499.61.33h-20.47c3.25,3.48,9.31,5.32,14.42,5.91.87.1,6.06.58,6.06-.13V.33ZM499.61,48.26c-5.3-1.13-18.84-7.05-23.62-4.13-2.02,1.24-1.27,3.79-1.77,5.46-.61,2.06-3.2,3.61-5.45,4.35-2.07.68-6.63.71-7.54,2.27-1.46,6.3-.5,12.4-5.01,17.94-9.17,11.23-36.16,8.66-49.93,6.02-6.71-1.29-14.07-4-21-3.75-5.57.21-10.54,3.33-16,4.41-5.73,1.13-11.37.73-17.13,1.16-22.08,1.63-61.07,15.06-59.67,37.53.44,6.99,9.63,25.19,16.36,29.24,4.57,2.75,8.08-.34,11.76,1.37,3.13,1.46,3.26,5.56,7.33,7.06,9.97,3.69,19.23-7.01,26.65-11.34,19.34-11.29,50.42-14.65,73.57-13.63,9.1.4,13.18,2.4,21.24,4.65,10.05,2.8,20.26,1.62,30.66,2.68,6.63.68,13.13,2.09,19.54,3.59v-8.1c-15.67-5.89-32.83-2.41-49.3-5.88-9.61-2.02-16.56-4.13-26.87-4.55-21.39-.86-43.34.24-62.95,7.66-7.97,3.01-16.97,8.19-24.79,10.59-9.37,2.87-9.66-5.84-16.21-6.34-2.78-.21-4.23.83-6.9-.82-6.1-3.77-6.99-12.36-5.39-18.09,4.24-15.13,28.18-24.4,44.69-27.27,6.95-1.21,14.14-1.34,21.02-2.52,6.3-1.08,11.99-3.23,18.63-3.53,11.09-.52,23.05,2.76,34.23,2.99,8.51.17,32.58-2.35,37.94-8.17,3.53-3.83,1.12-9.42,2.7-13.93,1.21-3.47,4.91-6.49,9.16-7.18,1.44-.24,2.99.05,4.25-.4,1.39-.5,1.5-1.83,2.29-2.71,2.62-2.9,7.22-3.68,11.28-2.9,2.33.45,4.11,1.41,6.22,2.22v-5.95ZM499.61,64.79v-8.76c-4.58-3.05-12.01-4.85-16.14-.33-1.53,1.68-1,2.87-4.23,3.39-2.81.45-4.46,0-7.17,1.59-8.05,4.71-2.31,13.04-6.39,18.44-4.86,6.45-27.33,9.32-35.94,9.49-15.03.3-29.81-4.69-44.71-2.17-4.71.8-9.27,2.34-14.09,3.05-4.74.7-9.64.82-14.39,1.47-17.55,2.42-44.74,11.66-48.19,28.3-.93,4.48.08,12.08,4.61,15.13,2.5,1.68,4.2.59,6.91.82,7.01.59,6.97,8.93,15.42,6.34,10.77-3.31,21.37-9.87,32.9-13.37,18.35-5.57,52.51-6.6,71.49-2.99,6.21,1.18,12.08,3.34,18.44,4.02,8.67.93,17.6.21,26.27,1.08,5.05.5,10.49,1.71,15.21,3.26v-8.93c-12.69-6.38-27.84-4.77-41.88-6.32-9.72-1.08-22.26-4.58-18.48-15.1,4.62-12.83,27.44-10.6,36.27-20.12,3.4-3.66,3.26-5.94,4.58-10.04s2.86-3.19,5.92-5.28c1.28-.88,1.94-2.08,3.16-2.97,3.39-2.45,6.74-1.16,10.42,0ZM499.61,122.98v-9.09c-7.92-5.12-23.97-.42-31.23-4.52-3.19-1.8-4.48-4.96-2.33-7.79,5.28-6.96,22.25-8.29,26.55-14.07,2.13-2.86,1.81-6.86,6.95-7.88v-12.95c-1.66-1.3-4.98-2.15-7.2-1.85-2.34.32-3.49,2.85-5.14,3.95-1.32.88-3.45,1.28-4.54,2.47-1.27,1.39-1.65,5.82-2.67,8-7.28,15.55-34.19,10.92-39.16,24.31-5.65,15.23,26,13.65,36.13,14.48,7.96.65,15.42,2.03,22.64,4.96ZM499.61,80.99c-5,1.58-3.75,6.31-7.69,9.25-5.27,3.94-22.33,7.16-24.89,12.49-2.18,4.54,3.9,6.74,8.35,7.03,8.1.54,16.42-.68,24.23,2.3v-6.94c-4.26.91-10.63,1.8-10.66-3.47-.03-5.65,6.18-5.42,10.66-7.27v-13.39ZM499.61,103.8v-7.93c-3.71,1.43-9.1,1.24-9.09,5.79.01,4.22,5.91,2.68,9.09,2.15ZM499.61,155.7c-4.11-1.47-8.06-2.91-12.52-3.54-5.56-.79-11.23-.61-16.81-1.09-22.18-1.91-43.47-10.4-66.1-8.22-16.72,1.61-47.03,12.52-57.1,24.12-12.62,14.54-7.54,34.72,10.82,43.75,19.96,9.81,45.53-2.24,64.89,9.64,6.82,4.19,6.51,7.18,9.18,13.12,2.21,4.92,13.03,8.24,18.8,9.33,15.39,2.91,19.8-5.06,32.6-8.01,5.27-1.22,10.83-1.43,16.23-.76v-7.93c-15.76.25-29.89,8.6-45.88,7.62-20.51-1.26-18.39-17.41-35.47-23.77-17.94-6.67-69.67-1-59.96-29.28,6.44-18.77,43.77-26.33,63.97-25.65,17.73.59,39.65,3.43,57.41,5.68,6.71.85,13.36,1.91,19.94,3.26v-8.26ZM499.61,165.29c-6.61-1.28-13.22-2.41-19.94-3.26-16.54-2.09-35.31-4.3-51.92-5.33-20.62-1.28-40.97,1.58-57.46,12.57-13.43,8.95-17.61,24.32.7,31.12,17.32,6.43,40.58,1.56,55.96,12.51,8.28,5.9,9.28,15.48,20.87,18.51,17.4,4.54,34.54-6.6,51.78-6.62v-9.26c-5.18.35-10.34.85-15.43,1.76-12.06,2.15-26.4,8.79-38.23,3.14-5.41-2.58-7.07-7.59-11.9-10.84-11.39-7.66-35.86-7.15-40.15-21.49-3.27-10.92,8.21-18.77,19.19-21.91,28.22-8.08,60.35-.36,86.52,9.35v-10.25ZM499.61,176.86c-25.83-9.25-55.4-16.94-83.46-10.08-11,2.69-24.04,9.77-20.67,20.99,4.08,13.62,29.24,13.31,40.54,21.49,5.19,3.76,5.85,8.67,13,10.91,11.02,3.46,22.43-1.82,33.2-3.87,5.73-1.09,11.54-1.72,17.4-2.09v-10.25c-7.95,7.23-20.73,10.96-32.2,8.03-6-1.53-10.81-5.52-16.48-7.65-8.29-3.11-18.9-4.02-23.25-11.88-6.21-11.2,7.87-18.91,19.43-20.19,17.73-1.96,39.25,4.22,52.5,14.17v-9.59ZM449.92,173.32c-10.22.68-23.58,5.51-21.94,15.91,1.46,9.21,16.24,11.02,24.12,14.13,5.72,2.25,10.92,6.54,17.17,7.73,8.33,1.59,18.63-.36,25.22-4.97,1.73-1.21,4.9-3.74,5.14-5.6.46-3.67-.33-8.1-.1-11.86-4.12-4.43-10.62-7.51-16.71-9.77-10.16-3.77-21.71-6.31-32.9-5.57Z"/>
      <path class="cls-2" d="M313.78,280h-1.57c-5.48-14.9-11.18-32.15-31.64-36.41-42.52-8.83-74.33,40.49-118.5,24.46-5.03-1.83-9.76-4.81-15.42-5.24-4.93-.37-9.87,1.05-14.95.65-13.21-1.03-23.65-13.79-34.49-19.31-7.46-3.8-16.94-5.28-23.95-9.64-10.82-6.72-11.88-18.45-27.84-20.59-14.85-1.99-30.4,5.32-45.42,1.61v-1.65c17.4,5.25,39.2-7.36,55.48,1.85,7.44,4.21,10.62,11.95,17.17,16.65,7.03,5.05,17.06,6.54,24.96,10.45,10.76,5.33,21.41,18.19,34.13,19.27,4.12.35,7.47-.52,11.35-.64,11.58-.36,19.72,7.22,31.52,8.28,39.3,3.51,67.81-36.68,107.84-27.08,20.12,4.83,25.95,22.38,31.33,37.33Z"/>
      <path class="cls-2" d="M0,188.43v-1.32c7.98,1.68,15.7-2.03,23.48-2.6,13.69-1.01,24.28,5.49,38.48,3.88,24.26-2.76,43.65-21.9,46.66-41.81,1.42-9.39-1.68-18.57,1.52-27.81,2.16-6.23,5.43-10.95,6.4-17.77.81-5.7.49-19.68-6.41-22.71-9.83-4.31-20.16,4.35-28.36,8.06-17.17,7.76-41.43,10.18-60.69,8.53-7.58-.65-14.47-2.47-21.07-5.62v-1.65c11.48,6.26,26.21,6.78,39.58,6.29,22.04-.8,33.11-4.91,51.4-14.04,23.11-11.53,29.47,4.03,27.13,21.13-1.01,7.35-4.67,12.38-6.79,19.09-2.48,7.86-.1,15.38-.69,23.22-1.85,24.77-28.72,49.98-59.99,46.41-6.65-.76-13.51-3.51-20.11-3.94-10.84-.71-19.91,4.14-30.53,2.66Z"/>
      <path class="cls-2" d="M0,177.19v-1.32c9.32,4.29,18.8-.88,28.17-.67,5.69.12,11.74,2.2,17.36,2.62,23.62,1.75,46.08-16.88,47.78-36.16.46-5.17-.65-10.63.51-15.77,2.45-10.9,8.52-14.69,5.22-27.71-3.87-15.27-19.29-3.77-28.42-.37-15.07,5.62-41.85,7.94-57.43,3.36-4.73-1.39-8.89-3.85-13.18-5.96v-1.65c7.17,4.13,14.28,7.32,23.08,8.22,14.44,1.48,33.83-.24,47.14-5.29,7.3-2.77,16.91-10.24,25.11-6.12,6.3,3.16,6.7,14.4,5.8,19.84-1.08,6.55-5.73,12.41-6.27,18.87-.34,4.07.37,8.5.01,12.57-1.76,19.97-24.54,39-49.01,37.52-5.73-.35-11.96-2.51-17.71-2.65-9.22-.23-19.08,5.05-28.17.67Z"/>
      <path class="cls-2" d="M0,163.64v-1.98c2.48,1.78,4.52,3.88,7.6,5.02,6.28,2.33,11.61-.06,17.78-.41,7.03-.4,13.11,1.66,20.38.58,15.03-2.22,29.55-13.31,31.75-26.23.45-2.67.14-5.61.45-8.22,1.04-8.88,7.27-12.9,4.13-23.31-2.78-9.22-11.23-4.01-17.53-1.82-13.79,4.79-35.65,6.5-49.59,1.65-5.04-1.76-9.03-5.02-14.97-3.46v-1.32c6.64-1.63,11.68,2.47,17.62,4.21,12.89,3.78,33.47,2.23,46.03-2.17,5.22-1.83,10.09-5.46,16-2.64,5,2.39,5.39,11.25,4.51,15.55-.93,4.54-4.11,8.72-4.62,13.31-.29,2.63,0,5.55-.45,8.22-2.59,15.2-21.65,28.62-39.91,27.97-4.64-.17-8.92-1.28-13.8-1-2.97.17-6.11,1.14-9.05,1.33-7.16.47-11.28-1.26-16.33-5.28Z"/>
      <path class="cls-2" d="M0,144.13v-3.64c2.72,5.23,5.52,11.36,11.02,15.05s10.57,2.01,17.13,1.49c1.66-.13,3.45.13,5.11,0,8.78-.74,21.21-6.63,25.96-12.92,2.91-3.85,2.89-7.16,4.19-11.36,1.4-4.5,3.66-6.56,2.09-11.71-2.01-6.57-9.02-2.89-14.57-2.08-7.31,1.06-17.79,1.5-25.09.67-5.94-.67-9.4-2.96-15.48-.68-4.12,1.55-8.04,4.79-10.36,8v-2.64c3.27-3.08,7.95-6.63,12.9-7.51,4.36-.78,8.33.95,12.6,1.47,6.85.84,15.77.45,22.67-.29,7.09-.76,16.61-5.61,18.97,3,1.52,5.56-1.25,8.84-2.8,13.88-.54,1.76-.51,3.68-1.25,5.56-3.62,9.27-18.72,17-29.84,17.92-1.66.14-3.45-.12-5.11,0-7.21.56-11.97,2.41-18.28-1.85-4.49-3.03-7.36-8.13-9.88-12.37Z"/>
      <path class="cls-2" d="M153.15,280h-1.57c-2.81-2.94-5.92-5.21-10.25-6.43-8.7-2.45-18.32-1.07-27.14-3.99-9.34-3.09-15.08-10.5-23.18-14.91-4.6-2.51-9.79-3.47-14.49-5.68-10.58-4.99-19.11-12.77-28.29-19.22-14.41-10.13-31.86-1.66-48.22-1.66v-1.32c14.14.07,29.1-6.45,42.91-1.48,5.75,2.07,10.77,7.31,15.57,10.73,5.09,3.62,12.76,8.91,18.43,11.64,5.26,2.53,10.68,3.47,15.9,6.48,7.68,4.43,14.05,12.12,23.13,14.63,12.43,3.44,29.71-.43,37.22,11.23Z"/>
      <path class="cls-2" d="M479.13,280h-1.57c-2-5.63-5.15-11.85-10.84-15.53-6.48-4.2-13.55-.14-20.26,1.15-7.64,1.47-17.17,1.52-23.75-2.54-4.8-2.96-5.5-7.46-11.58-9.45-6.26-2.05-12.39-1.08-18.8-1.4-5.57-.29-11.2-2.18-16.74-.82-6.48,1.59-6.32,6.24-10.24,9.58-2.59,2.22-7.38,2.96-7.1,6.94.24,3.45,3.97,8.79,5.53,12.08h-1.97c-1.45-3.98-6.87-11.11-4.41-15.11,1.37-2.22,5.39-3.49,7.37-5.39,1.75-1.67,2.7-4.15,4.36-5.92,6.2-6.61,15.35-3.09,23.59-2.68,6.94.35,14.18-.73,20.68,2.14,6.23,2.75,6.43,8.4,14.84,11.01,11.1,3.45,18.11-.74,28.04-2.42,7.57-1.28,11.68,1.17,16.15,5.97,3.27,3.52,5.19,8.15,6.7,12.39Z"/>
      <path class="cls-2" d="M129.13,280h-2.36c-7.45-6.87-19.9-4.39-29.63-7.68-8.04-2.72-12.92-9.19-19.85-13.08-4.75-2.67-10.47-3.88-15.44-6.54-8.15-4.36-14.86-10.09-22.29-15-12.38-8.19-25.67-2.24-39.56-1.66v-1.32c14.91-.89,27.97-6.57,41.13,2.32,8.4,5.68,16.32,12.65,26.11,16.75,2.81,1.18,5.95,1.9,8.75,3.23,7.95,3.77,13.48,11.34,22.05,14.22,10.01,3.37,23.63.54,31.1,8.77Z"/>
      <path class="cls-2" d="M298.03,280h-1.97c-3.82-9.71-8.97-19.68-21.44-23.15-18.56-5.17-37.08,3.84-52.84,11.19-7.95,3.71-15.85,7.65-23.36,11.96h-3.15c9.65-5.26,19.53-10.34,29.66-14.93,15.6-7.08,33.1-14.79,51.15-9.12,13.12,4.13,17.16,13.98,21.95,24.05Z"/>
      <path class="cls-2" d="M103.94,280h-2.76c-6.85-3.58-15.52-2.35-22.71-5.56-5.84-2.6-10.03-7.86-15.35-10.91-3.86-2.22-8.46-3.24-12.54-5.34-7.62-3.92-14.34-9.92-21.48-13.7-8.67-4.59-19.7-1.46-29.1-.52v-1.32c10.25-1.13,21.08-4.17,30.44,1.05,7.62,4.25,14.49,10.46,22.74,14.29,2.77,1.28,5.87,2.02,8.64,3.33,6.7,3.18,11.09,9.3,17.83,12.13,7.66,3.22,17.73,1.6,24.28,6.55Z"/>
      <path class="cls-2" d="M453.15,280h-1.57c-2.7-4.15-3.87-9.58-10.82-9.25-6.98.33-13.35,2.46-20.43-.38-2.96-1.18-4.72-3.83-8.11-4.43-5.9-.26-13.37-1.85-19.1-1.84-6.26,0-6.57,3.4-9.49,6.61-.87.95-2.93,2.15-3.41,3.09-.92,1.79.98,4.48,1.67,6.2h-1.97c-.51-2.95-2.96-4.89-.34-7.72.71-.77,1.59-1.02,2.3-1.7,3.93-3.77,3.14-7.84,11.61-7.8,3.95.02,11.99.88,16.1,1.39,7.58.94,9.55,5.55,16.23,6.21,5.7.56,10.16-.83,15.3-.97,7.27-.2,9.63,5.95,12.02,10.59Z"/>
      <path class="cls-2" d="M76.77,280h-5.91c-1.75-.74-3.77-.85-5.61-1.4-7.8-2.32-10.79-7.83-17.26-11.3-2.57-1.38-5.56-2.11-8.2-3.36-6.23-2.96-17.61-11.74-23.44-12.86-5.37-1.03-10.96.17-16.36.49v-1.32c8.37-.74,15.44-2.1,22.96,2.04,5.38,2.96,10.43,6.82,16.05,9.67,3.38,1.72,7.15,2.74,10.33,4.55,4.68,2.67,8.55,7.56,13.53,9.79,4.4,1.97,9.46,1.94,13.9,3.7Z"/>
      <path class="cls-2" d="M277.95,280h-1.57c-4.21-6.83-10.03-12.55-19.88-12.71-11.8-.19-21.9,7.22-30.9,12.71h-2.36c14.55-10.11,35.99-22.75,50.94-5.58,1.46,1.68,2.86,3.65,3.78,5.58Z"/>
      <path class="cls-2" d="M47.64,280h-3.15c-3.73-2.41-6.74-6.24-10.66-8.4-1.82-1-4.11-1.62-5.99-2.57-4.58-2.32-15.24-9.02-19.81-9.48-2.55-.26-5.44.11-8.03-.04v-1.32c5.48-.18,9.16-.28,14.04,1.93,5.42,2.45,20.37,9.78,24.35,12.94,3.04,2.41,5.19,5.34,9.24,6.95Z"/>
      <path class="cls-2" d="M429.13,280h-1.57c-2.76-5.06-8.65-1.91-13.17-1.64-4.73.28-9.8-3.09-12.42,1.64h-1.57c.53-2.55,3.57-4.11,6.48-3.97,1.52.07,2.99.82,4.37.97,6.11.65,15.09-4.47,17.88,3Z"/>
      <path class="cls-2" d="M26.38,280h-1.97c-1.98-2.49-4.24-3.82-7.22-5.35-5.08-2.6-11.47-5.33-17.19-6.55v-1.32c1.6.03,3.13.45,4.6.93,3.9,1.28,10.44,4.18,14.03,6.07,3.12,1.64,5.68,3.64,7.75,6.22Z"/>
      <path class="cls-2" d="M7.48,280h-2.36c-1.38-1.09-3.22-1.85-5.12-1.98v-1.65c2.71.78,5.58,1.72,7.48,3.64Z"/>
      <path class="cls-2" d="M275.9,141.25c18.92-1.91,14.93,12.55,24.88,18.92,5.19,3.32,10.95.06,15.11,2.19,1.84.94,1.89,2.74,3.19,3.93.96.89,2.8,1.5,3.95,2.31,6.51,4.56,4.08,8.7,3.75,14.71-.56,10.13,7.85,18.37,6.19,28.67-1.15,7.14-12.02,18.07-20.16,20.43-10.84,3.14-19.74-2.16-29.99-2.95-9.01-.69-19.94,2.02-26.51-4.84-2.21-2.31-3.32-5.47-5.35-7.74-9.08-10.15-25.5-8.16-32.07-22.99-6.41-14.47,8.07-16.15,17.34-24.46,11.81-10.6,19.52-26.15,39.67-28.18ZM275.89,142.56c-21.87,2.32-28.92,21.84-43.64,31.79-8.89,6.01-16.97,7.56-11.79,19.21,5.55,12.5,17.82,11.93,28.15,19.34,8.14,5.84,6.14,14.24,19.7,15.19,4.68.33,9.8-.3,14.51.05,11.68.86,21.24,7.34,33.04,1.55,5.79-2.84,14.62-12.06,15.53-17.71,1.65-10.23-6.86-18.63-6.19-29,.23-3.57,1.6-6.23.02-9.94-1.43-3.37-5.53-4.05-8.07-6.78-1.56-1.67-.86-2.95-4.36-3.29-5.39-.52-8.55,1.36-13.59-2.14-9.26-6.45-5.89-20.11-23.32-18.27Z"/>
      <path class="cls-2" d="M171.97,55.64c9.08-.36,18.28,1.92,24.3,7.83,5.24,5.15,7.82,14.03,16.34,16.36,5.19,1.42,9.12-2.2,13,1.32,7.34,6.66-1.99,24.67,9.69,30.87,4.14,2.2,12.46.82,12.69,7.19.33,8.91-15.8,14.24-22.61,19.3-6.34,4.71-10.72,11.71-16.34,17.02-18.23,17.24-48.51,18.91-69.09,3.49-4.71-3.53-15.82-14.14-15.89-19.38-.09-6.63,6.34-17.96,9.02-24.42,5.87-14.11-6.55-26.78,2.01-41.94,6.02-10.65,23.44-17.11,36.87-17.64ZM171.97,56.96c-13.02.51-30.35,7-35.82,17.53-7.4,14.27,3.73,26.5-.7,39.08-2.55,7.23-9.9,18.69-9.81,26.07.05,3.88,6.85,10.79,9.99,13.76,20.3,19.22,52.76,20.4,73.03.48,6.02-5.92,10.32-12.88,17.76-17.81,6.05-4.02,20.06-9.06,19.97-16.56-.06-5.33-7.22-4.31-11.21-6.05-13.69-5.97-3.61-26.52-11.33-31.81-2.79-1.91-5.59.25-9.03-.02-11.9-.93-15.02-14.86-23.51-20.27-5.28-3.37-12.8-4.65-19.34-4.39Z"/>
      <path class="cls-2" d="M128.65,167.7c9.9-1,23.66,5.95,31.94,10.35,10.85,5.76,20.46,12.4,22.43,23.81,1,5.8-.75,13.67,6.07,17.38,3.7,2.01,8.74,2.2,12.53,4.36,14.62,8.33-10.36,18.35-19.53,18.42-8.46.06-11.05-5.16-17.04-5.89-6.45-.78-11.79,1.01-18.5-.66-8.17-2.03-33.72-17.37-41.4-22.43-7.05-4.65-11.26-8.75-7.58-16.56,4.54-9.64,17.78-27.43,31.09-28.77ZM128.65,169.01c-12.52,1.42-25.36,18.91-29.62,28.02-3.56,7.6,1.22,11.18,7.94,15.47,9.39,6,23.34,14.32,33.47,19.17,10.91,5.23,14.04,1.92,24.62,3.13,6.31.72,9.23,5.96,17.04,5.89,8.03-.07,32.2-9.11,17.92-16.4-3.49-1.78-8.06-1.98-11.79-3.98-7.6-4.08-5.66-12.02-6.77-18.45-1.98-11.4-12.62-18.01-23.46-23.61-7.66-3.96-20.28-10.26-29.35-9.23Z"/>
      <path class="cls-2" d="M36.12,127.02c6.59-.86,17.24,2.14,13.96,9.08-2.11,4.47-7.33,5-11.62,7.11-6.25,3.07-10.54,8.68-18.92,5.51-4.14-1.57-8.5-8.18-7.55-11.88,1.58-6.18,13.18-7.22,19.12-8.41,1.6-.32,3.49-1.21,5.01-1.41ZM36.51,128.34c-1.26.17-2.79.89-4.14,1.15-5.91,1.16-20.73,2.56-18.89,10.1.38,1.56,3.65,6.2,5.23,7.18,7.51,4.7,13.64-2.22,19.61-5.02,3.2-1.5,6.98-2,9.32-4.73,5.33-6.23-4.77-9.52-11.12-8.68Z"/>
      <path class="cls-2" d="M399.52,93.65c9.24-.17,25.61,5.47,23.61,15.19-1.36,6.61-13.98,6.26-19.8,6.51-15.02.65-24.39.05-38.87,4.72-6.46,2.08-13.85,5.95-20.1,7.59-2.62.69-6.33,1.2-8.56-.54-1.85-1.44-1.21-3.71-2.39-5.26-.83-1.09-3.12-1.81-3.97-3.28-4.41-7.59,10.16-12.84,16.35-15.17,16.01-6.03,36.16-9.44,53.73-9.76ZM399.52,94.97c-20,.37-44.39,4.82-61.74,13.28-3.76,1.84-8.7,4.73-7.2,9.04.71,2.04,3.27,2.6,4.4,4.24,1.06,1.54.44,3.16,1.81,4.43,2.31,2.12,6.5.61,9.14-.29,10.46-3.55,19.43-8.16,30.83-10.14,10.52-1.82,21.09-.7,31.69-1.49,4.28-.32,12.21-1.18,13.1-5.53,1.76-8.66-13.8-13.69-22.03-13.54Z"/>
      <path class="cls-2" d="M312.52,1.09c7.29-.53,14.87,1.34,20.17,5.68,8.56,7.03-5.77,12.21-4.7,19.15.46,3.02,2.28,4.37,1.37,8.15-2.11,8.66-14.12,6.66-21.69,6.91-3.69.12-7.09.96-10.96.63-10.05-.84-13.62-5.41-21.39-9.48-2.12-1.11-4.43-1.28-5.96-3.26-.55-.72-.69-1.59-1.24-2.26-1.17-1.44-4.34-2.19-4.29-4.3.04-1.96,4.71-3.38,6.27-4.61,1.03-.8,1.93-2.37,2.92-3.17,3.3-2.66,7.8-2.62,11.63-4.12,1.99-.78,3.72-2.27,5.64-3.2,5.48-2.64,15.97-5.67,22.23-6.13ZM312.52,2.41c-5.92.45-16.71,3.56-21.85,6.12-1.75.87-3.18,2.22-5.09,3-3.05,1.25-6.98,1.44-9.87,2.95-2.15,1.13-3.32,3.15-5.23,4.53-.88.64-5.29,2.67-5.09,3.59.86,1.28,3,1.93,3.91,3.02.79.93.94,2.38,1.99,3.28,1.13.98,3.49,1.38,4.96,2.12,7.82,3.94,10.63,8.5,20.85,9.27,3.64.28,7.04-.52,10.56-.63,5.55-.17,14.84,1.3,18.49-2.98,4.52-5.3-.81-8.64.4-13.55.99-4.04,9.99-9.82,6.52-14.03-4.1-4.97-13.7-7.2-20.55-6.68Z"/>
      <path class="cls-2" d="M455.02,182.89c6.74-.72,21.13.11,26.76,3.48,8.65,5.17,4.9,16.49-5.95,15.58-5.01-.42-8.95-3.74-13.54-4.83-3.29-.78-6.74-.51-9.93-1.25-10.64-2.45-7.29-11.92,2.67-12.98ZM455.42,184.22c-8.49.86-11.8,8.54-2.43,10.45,3.23.66,6.5.45,9.9,1.27,5.2,1.25,9.42,5.17,15.21,4.68,7.24-.62,8.95-8.42,4.17-12.36s-20.45-4.69-26.85-4.04Z"/>
      <path class="cls-2" d="M276.69,155.8c12.46-.99,10.93,8.46,17.61,12.79,3.35,2.17,5.4.95,9.01,1.36,3.27.37,2.86,1.59,4.54,3.13,1.25,1.15,3.31,1.84,4.55,3.12,2.99,3.09,1.29,7.99,1.81,11.71.82,5.88,5.66,10.54,4.58,17.14-.87,5.33-8.94,13.18-15.04,14.81-8.12,2.18-14.17-1.65-21.72-2.29-7.03-.59-15.82,1.36-21.22-3.67-1.64-1.53-2.55-3.71-3.96-5.27-6.17-6.85-17.12-6.13-20.82-15.9-3.46-9.13,2.88-10.04,9.42-14.87,10.52-7.78,14.04-20.67,31.23-22.04ZM276.68,157.12c-15.2,1.34-19,12.06-27.66,19.75-5.88,5.22-14.79,6.18-11.63,15.05,3.42,9.62,14.13,8.81,20.25,15.39,2.12,2.28,3.13,5.28,6.16,7.06,4.69,2.74,12.77,1.46,18.23,1.88,7.37.57,14.06,4.47,21.62,2.2,5.5-1.65,12.86-8.79,13.64-13.67.95-6.01-3.94-11.26-4.64-16.87-.43-3.46,1.15-8.67-1.86-11.33-.96-.85-2.7-1.34-3.72-2.17-.9-.73-1.47-2.15-2.37-2.64-1.82-.99-5.34-.28-7.56-.59-9.95-1.41-7.57-15.18-20.46-14.04Z"/>
      <path class="cls-2" d="M174.72,71.17c5.36-.31,11.7.72,16.01,3.55,5.02,3.29,8.95,12.03,15.39,12.86,3.46.45,6.21-1.41,9.04,1.33,5.8,5.62.05,20.36,6.68,24.48,2.17,1.34,5.68,1.25,6.41,4.2,1.7,6.87-9.3,10.7-14.27,14.32-7.14,5.2-10.44,13.04-18.35,17.98-12.16,7.59-29.98,8.12-41.88-.15-3.75-2.61-12.43-11.3-12.44-15.36-.03-7.9,8.16-17.65,7.46-25.41-.57-6.24-3-11.04-2.26-17.85,1.3-11.93,14.96-19.17,28.22-19.94ZM174.72,72.5c-12.43.72-25.6,7.72-26.69,18.91-.91,9.34,4.17,15.86.89,25.21-1.67,4.77-6.07,13.03-6.05,17.76.02,3.73,8.88,12.42,12.44,14.7,14.08,9.03,33.82,6.25,45.06-4.8,3.71-3.65,6.61-8.48,10.63-11.9,4.21-3.58,15.65-7.92,15.79-13.21.1-3.76-4.15-3.34-6.53-5.12-6.59-4.92-.96-18.95-6.28-24.15-2.09-2.04-2.75-.98-5.11-.97-11.89.08-12.65-10.47-21.47-14.4-3.84-1.71-8.39-2.29-12.68-2.04Z"/>
      <path class="cls-2" d="M132.98,181.57c7.86-.9,25.95,6.66,31.21,11.64,5.22,4.95,4.26,8.22,6.31,13.87,2.18,6,9.51,6.07,10.82,9.76,2.4,6.75-11.65,10.96-17.86,9.71-2.68-.54-4.65-2.63-7.45-3-5.98-.78-7.95.19-13.85-2.59-7.97-3.75-15.66-9.05-23.78-12.76-5.28-3.47-4.96-6.11-2.57-10.97,2.9-5.91,8.89-14.72,17.17-15.66ZM132.98,182.9c-7.4.91-12.99,9.41-15.6,14.67-2.27,4.58-2.73,6.56,2.33,9.85,7.69,5,18.81,9.42,27.05,13.98,3.27,1.03,6.93.39,10.19,1.03,3.16.63,5.13,2.79,8.59,3.04,5.88.41,20.04-4.96,12.22-10.26-4.23-2.87-6.67-2.33-8.66-7.6-3.06-8.07-1.38-11.6-11.1-17.13-5.24-2.98-18.86-8.34-25.02-7.58Z"/>
      <path class="cls-2" d="M395.57,108.02c-1.31,1.09-8.33.05-10.34.05-7.83,0-16.73,2.46-24.43,3.68-4.41-.52-3.21-3.21-.05-4.7,7.64-3.59,24.98-6.89,32.83-2.99,1.44.72,3.52,2.67,1.99,3.96ZM394.49,107.11c-.92-3.12-9.12-3.69-12.39-3.63-4.46.08-17.62,2.88-21.21,5.01-1.16.69-2.17,1.93-.11,1.91,2.78-.02,8.43-1.72,11.59-2.2,3.54-.54,8.61-1.37,12.1-1.42,1.54-.02,9.5.73,10.03.33Z"/>
      <path class="cls-2" d="M298.29,23.92c-3.25-2.5-13.63,3.24-13.67-2.27-.04-5.61,10.98-6.64,15.77-8.27,5.02-1.7,8.67-5,14.45-2.53,2.93,1.25,5.92,5.1,4.55,7.91-.75,1.54-3.99,2.64-5.22,3.88-2.74,2.77-1.63,7.24-8.07,7.14-5.23-.08-5.01-3.7-7.81-5.86ZM310.15,11.32c-3.17.28-6.65,2.49-9.65,3.48-4.62,1.52-14.96,2.23-14.1,7.7,4.83,1.42,8.89-2.84,13.23.79,2.1,1.75,2.64,4.92,6.06,5.16,5.38.38,4.58-3.28,6.74-5.95,2.45-3.02,7.47-2.91,4.96-7.52-1.27-2.33-4.16-3.94-7.24-3.67Z"/>
      <path class="cls-2" d="M275.1,170.66c1.24-.14,2.96-.2,4.19-.06,5.12.6,6.66,6.81,10.75,7.5,1.8.3,3.59-.21,5.37.78.28.15,3.74,2.68,4,2.92,2.13,1.95,1.6,4.84,2.34,7.29.83,2.78,3.22,5.74,2.93,8.71-.4,4.12-6.76,9.31-11.62,9.76-4.35.4-7.85-1.54-11.81-1.91-5.61-.52-12.24,1.39-16.5-2.68-1.2-1.15-1.78-2.68-2.99-3.77-2.49-2.24-6.38-2.86-8.03-6.15-3.39-6.76,2.64-7.57,6.7-11.57,4.67-4.6,5.9-9.82,14.66-10.83ZM275.09,171.98c-8.36,1.11-9.34,6.56-13.87,10.83-2.02,1.9-6.78,3.78-6.92,6.45-.29,5.5,6.18,6.44,9.29,9.74,1.05,1.11,1.52,2.67,2.75,3.64,3.32,2.64,10.6,1.32,14.91,1.7,7.16.63,11.33,4.58,18.18-1.02,6.66-5.45,2.46-8.43.77-14.23-.53-1.83-.37-4.22-1.43-5.74-.32-.45-4.29-3.44-4.77-3.6-2.61-.89-4.22.46-7.35-1.76-4.46-3.16-3.61-7.06-11.55-6.01Z"/>
      <path class="cls-2" d="M177.08,86.7c2.95-.3,5.95-.12,8.74.74,4.78,1.46,6.65,5.34,10.9,7.04,2.9,1.17,5.85.06,8.01,2.2,4.39,4.37,1.99,12.09,2.74,17.2.22,1.5,1.62,2.57,1.62,4.29,0,3.69-6.78,6.84-9.47,9.59-1.89,1.94-3.37,4.51-5.2,6.54-9.74,10.81-28.7,11.07-34.91-2.63-2.54-5.61,2.86-12.14,3.01-17.8.1-3.64-1.94-8.36-1.92-12.23.05-8.08,7.1-13.99,16.48-14.95ZM177.07,88.02c-5.31.57-11.88,3.95-13.7,8.33-2.78,6.71.97,11.66.7,17.77-.21,4.62-4.9,12.05-3.46,16.31,3.77,11.13,18.86,13.43,28.95,6.42,4.17-2.9,5.94-7.26,9.46-10.57,2.36-2.22,8.48-5.01,8.48-8.1,0-1.44-1.39-2.56-1.59-3.96-.72-4.92,1.66-12.37-2.36-16.53-1.76-1.82-2.6-.87-4.82-1.24-8.49-1.42-8.56-9.84-21.65-8.43Z"/>
      <path class="cls-2" d="M138.89,194.8c3.53-.38,8.95.18,12.16,1.5,5.95,2.44,10.58,10.75,3.87,14.61-5.25,3.02-8.51-1.15-12.53-3.03-3.4-1.59-10.47-2.18-11.19-5.47-.97-4.4,2.92-7.09,7.69-7.6ZM138.88,196.12c-1.83.21-4.35,1.06-5.36,2.44-.9,1.24-1.35,3.78-.05,4.9.82.71,6.89,2.06,8.79,2.87,4.11,1.75,8.56,6.91,13.07,2.61,3.01-2.87.43-7.9-2.57-10.1-3.16-2.32-9.81-3.19-13.88-2.72Z"/>
      <path class="cls-2" d="M269.81,193.95c-2.78-2.56,1.25-4.04,2.03-5.52,1.02-1.94-.68-2.98,3.6-3.27,3.69-.25,14.75,2.39,14.99,6.13.12,1.78-2.55,3.21-4.45,3.39-2.85.28-4.48-1.04-6.86-1.15-2.57-.12-6.86,2.67-9.31.41ZM273.67,186.82c.91,2.17-3.92,4.43-3.02,5.9,1.14,1.88,6.33-.52,8.29-.52,2.98,0,5.91,2.43,9,.48,2.6-1.64-1.5-3.74-3.29-4.41-3.1-1.17-7.65-2.31-10.97-1.45Z"/>
      <path class="cls-2" d="M182.59,101.58c7.68-.74,15.26,2.77,14.26,9.99-.57,4.14-5.6,4.42-7.81,7.33-2.61,3.42-1.9,11.05-9.32,10.37-5.81-.54-3.11-8.17-3.33-11.43-.42-6.34-5.87-15.09,6.2-16.26ZM182.58,102.9c-10.22,1.16-4.98,9.41-4.61,14.94.17,2.54-2.12,9.8,2.14,10.12,5.23.39,5.61-6.75,7.51-9.59s7.24-3.84,7.66-6.79c.93-6.47-5.89-9.45-12.7-8.68Z"/>
    </g>
  </g>
</svg>