<?xml version="1.0" encoding="UTF-8"?>
<svg id="Layer_2" data-name="Layer 2" xmlns="http://www.w3.org/2000/svg" viewBox="0 0 1612.28 163.49">
  <defs>
    <style>
      .cls-1 {
        fill: #c7ebd1;
      }
    </style>
  </defs>
  <g id="Layer_1-2" data-name="Layer 1">
    <g>
      <path class="cls-1" d="M66.99,3.23H0v157.03h28.65v-61.6h38.34c33.28,0,52.36-17.43,52.36-47.82S100.27,3.23,66.99,3.23ZM28.65,28h37.26c16.91,0,24.77,7.26,24.77,22.83s-7.86,22.83-24.77,22.83H28.65V28Z"/>
      <rect class="cls-1" x="135.92" y="3.23" width="28.65" height="157.03"/>
      <polygon class="cls-1" points="324.33 160.26 290.66 160.26 240.88 90.27 218.85 113.9 218.85 160.26 190.2 160.26 190.2 3.23 218.85 3.23 218.85 76.9 286.48 3.23 321.16 3.23 259.77 70.13 324.33 160.26"/>
      <polygon class="cls-1" points="522.35 3.23 483.04 160.26 453.76 160.26 423.05 43.25 392.55 160.26 363.06 160.26 323.96 3.23 353.39 3.23 378.78 118.51 408.75 3.23 437.35 3.23 467.53 118.54 492.92 3.23 522.35 3.23"/>
      <polygon class="cls-1" points="652.67 135.49 652.67 160.26 536.13 160.26 536.13 3.23 650.51 3.23 650.51 28 564.78 28 564.78 66.77 639.96 66.77 639.96 91.76 564.78 91.76 564.78 135.49 652.67 135.49"/>
      <polygon class="cls-1" points="832.31 135.49 832.31 160.26 715.78 160.26 715.78 3.23 830.16 3.23 830.16 28 744.43 28 744.43 66.77 819.6 66.77 819.6 91.76 744.43 91.76 744.43 135.49 832.31 135.49"/>
      <path class="cls-1" d="M969.95,116.96c0,28.26-23.09,46.53-58.8,46.53-40.67,0-67.89-21.95-69.36-55.94l-.09-1.57h28.63l.09,1.42c1.34,20.05,15.79,31.1,40.73,31.1,19.17,0,30.16-7.45,30.16-20.46,0-17.32-12.41-20.4-42.37-27.83-26.67-6.66-51.33-16.87-51.33-46.05,0-27.66,21-44.16,56.22-44.16s59.9,19.45,62.04,50.73l.11,1.62h-28.58l-.17-1.31c-2.3-17.51-13.25-26.04-33.39-26.04-17.4,0-27.79,6.29-27.79,16.8,0,15.06,12.3,18.14,32.7,23.22l2.13.52c31.71,8.08,59.08,15.08,59.08,51.44Z"/>
      <polygon class="cls-1" points="1100.48 3.23 1100.48 28 1051.37 28 1051.37 160.26 1022.72 160.26 1022.72 28 973.4 28 973.4 3.23 1100.48 3.23"/>
      <path class="cls-1" d="M1171.98,3.23h-29.04l-57.77,157.03h29.32l12.49-36.4h60.74l12.49,36.4h29.29L1171.98,3.23ZM1135.1,99.52l22.47-67.16,22.25,67.16h-44.72Z"/>
      <polygon class="cls-1" points="1341.52 3.23 1341.52 28 1292.41 28 1292.41 160.26 1263.76 160.26 1263.76 28 1214.41 28 1214.41 3.23 1341.52 3.23"/>
      <polygon class="cls-1" points="1474.64 135.49 1474.64 160.26 1358.1 160.26 1358.1 3.23 1472.48 3.23 1472.48 28 1386.75 28 1386.75 66.77 1461.93 66.77 1461.93 91.76 1386.75 91.76 1386.75 135.49 1474.64 135.49"/>
      <path class="cls-1" d="M1612.28,116.96c0,28.26-23.09,46.53-58.8,46.53-40.67,0-67.89-21.95-69.36-55.94l-.09-1.57h28.63l.09,1.42c1.34,20.05,15.79,31.1,40.73,31.1,19.15,0,30.16-7.45,30.16-20.46,0-17.32-12.41-20.4-42.37-27.83-26.67-6.66-51.35-16.87-51.35-46.05,0-27.66,21.02-44.16,56.24-44.16s59.9,19.45,62.04,50.73l.11,1.62h-28.58l-.17-1.31c-2.33-17.51-13.25-26.04-33.39-26.04-17.4,0-27.79,6.29-27.79,16.8,0,15.06,12.3,18.14,32.7,23.22l2.13.52c31.71,8.08,59.08,15.08,59.08,51.44Z"/>
    </g>
  </g>
</svg>