<svg width="1822" height="185" viewBox="0 0 1822 185" fill="none" xmlns="http://www.w3.org/2000/svg">
<g clip-path="url(#clip0_103_2791)">
<path d="M75.6829 3.65039H0V181.055H32.366V111.456H75.6829C113.281 111.456 134.842 91.7686 134.842 57.4315C134.842 23.0943 113.281 3.65039 75.6829 3.65039ZM32.366 31.636H74.4661C93.5694 31.636 102.452 39.837 102.452 57.4315C102.452 75.0259 93.5694 83.2269 74.4661 83.2269H32.366V31.636Z" fill="#032B1E"/>
<path d="M185.922 3.65039H153.556V181.055H185.922V3.65039Z" fill="#032B1E"/>
<path d="M366.417 181.055H328.381L272.142 101.989L247.247 128.685V181.055H214.881V3.65039H247.247V86.8772L323.66 3.65039H362.84L293.484 79.2359L366.417 181.055Z" fill="#032B1E"/>
<path d="M590.132 3.65039L545.72 181.055H512.648L477.946 48.8654L443.487 181.055H410.172L366.003 3.65039H399.246L427.937 133.893L461.787 3.65039H494.105L528.198 133.917L556.89 3.65039H590.132Z" fill="#032B1E"/>
<path d="M737.361 153.069V181.055H605.706V3.65039H734.927V31.636H638.073V75.4396H723.003V103.669H638.073V153.069H737.361Z" fill="#032B1E"/>
<path d="M940.317 153.069V181.055H808.663V3.65039H937.884V31.636H841.029V75.4396H925.96V103.669H841.029V153.069H940.317Z" fill="#032B1E"/>
<path d="M1095.82 132.141C1095.82 164.069 1069.73 184.705 1029.38 184.705C983.44 184.705 952.68 159.908 951.025 121.506L950.928 119.73H983.269L983.367 121.336C984.875 143.992 1001.2 156.476 1029.38 156.476C1051.04 156.476 1063.45 148.056 1063.45 133.358C1063.45 113.792 1049.44 110.312 1015.59 101.916C985.459 94.3968 957.595 82.8618 957.595 49.8874C957.595 18.6409 981.322 0 1021.11 0C1060.9 0 1088.79 21.9748 1091.2 57.3097L1091.32 59.1349H1059.03L1058.83 57.6504C1056.23 37.8658 1043.86 28.229 1021.11 28.229C1001.45 28.229 989.718 35.3349 989.718 47.2106C989.718 64.221 1003.61 67.7009 1026.66 73.444L1029.07 74.0281C1064.89 83.1538 1095.82 91.0628 1095.82 132.141Z" fill="#032B1E"/>
<path d="M1243.29 3.65039V31.636H1187.81V181.055H1155.44V31.636H1099.71V3.65039H1243.29Z" fill="#032B1E"/>
<path d="M1324.06 3.65039H1291.26L1225.99 181.055H1259.11L1273.23 139.928H1341.85L1355.97 181.055H1389.06L1324.06 3.65039ZM1282.4 112.429L1307.78 36.5518L1332.92 112.429H1282.4Z" fill="#032B1E"/>
<path d="M1515.6 3.65039V31.636H1460.12V181.055H1427.75V31.636H1372V3.65039H1515.6Z" fill="#032B1E"/>
<path d="M1666 153.069V181.055H1534.34V3.65039H1663.56V31.636H1566.71V75.4396H1651.64V103.669H1566.71V153.069H1666Z" fill="#032B1E"/>
<path d="M1821.5 132.141C1821.5 164.069 1795.41 184.705 1755.06 184.705C1709.12 184.705 1678.36 159.908 1676.7 121.506L1676.61 119.73H1708.95L1709.05 121.336C1710.56 143.992 1726.88 156.476 1755.06 156.476C1776.7 156.476 1789.13 148.056 1789.13 133.358C1789.13 113.792 1775.12 110.312 1741.27 101.916C1711.14 94.3968 1683.25 82.8618 1683.25 49.8874C1683.25 18.6409 1707 0 1746.79 0C1786.58 0 1814.47 21.9748 1816.88 57.3097L1817 59.1349H1784.7L1784.51 57.6504C1781.88 37.8658 1769.54 28.229 1746.79 28.229C1727.13 28.229 1715.4 35.3349 1715.4 47.2106C1715.4 64.221 1729.29 67.7009 1752.34 73.444L1754.75 74.0281C1790.57 83.1538 1821.5 91.0628 1821.5 132.141Z" fill="#032B1E"/>
</g>
<defs>
<clipPath id="clip0_103_2791">
<rect width="1821.5" height="184.705" fill="white"/>
</clipPath>
</defs>
</svg>
