<?xml version="1.0" encoding="UTF-8"?>
<svg id="Layer_2" data-name="Layer 2" xmlns="http://www.w3.org/2000/svg" viewBox="0 0 196.89 330.9">
  <defs>
    <style>
      .cls-1 {
        fill: #e0e4e0;
      }
    </style>
  </defs>
  <g id="Layer_2-2" data-name="Layer 2">
    <g>
      <path class="cls-1" d="M196.89,2.7c-4.22,7.11-6.51,16.37-4.4,25.49.86,3.72,2.68,6.49,4.4,9.32v-2.31c-1.8-3.07-3.46-6.17-3.84-10.5-.65-7.48.8-13.92,3.84-19.4v-2.6ZM196.89.41v-.41H.63v.39h11.84c-1.7,4.05-2.47,9.08-4.44,12.86-1.91,3.65-4.92,5.63-7.4,8.39v1.95c1.7-2.07,4.03-3.67,5.7-5.62C10.27,13.37,11.53,6.63,13.6.39h17.37c-2.61,4.86-3.77,11.66-6.56,16.21-2.94,4.79-8.03,6.62-10.95,11.53-2.19,3.67-2.83,8.55-4.58,12.48-1.98,4.44-4.88,7.29-8.25,9.26v1.71c3.04-1.71,5.79-4.13,7.99-7.82,2.43-4.06,2.99-8.95,4.92-13.16,2.71-5.92,8.18-7.53,11.43-12.43,3.26-4.91,4.26-12.78,7.55-17.76h17.23c-4.63,7.3-5.64,16.8-11.7,22.42-3.38,3.14-7.29,4.77-9.94,9.42-2.3,4.07-2.99,10.09-5.01,14.61-4.49,10.06-13.47,12.79-22.47,14.92v1.47c10.16-2.25,20.09-4.89,25.05-19.9,1.25-3.78,1.83-8.2,3.99-11.33,2.66-3.89,7.31-5.89,10.37-9.21,5.48-5.94,6.31-16.23,11.56-22.43h14.37l-5.97,5.29c-2.88,4.24-2.21,10.03-4.69,14.26-4.44,7.57-20.6,17.77-17.29,29.58,1.95,6.96,8.63,5.25,12.81,7.03,4.5,1.9,6.52,7.29,9.74,11.25.56.68,3.15,3.01,3.29,3.32.39.85-.18,1.72-.15,2.54.21,5.85,1.96,9.79,6.61,8.29,4.04-1.3,8.12-6.09,12.61-1.84,5.71,5.42.35,10.24.52,15.37.1,2.7,2.43,4.54,2.73,7.12.56,4.85-2.34,11.27-.51,15.54,2.16,5.03,10.99,4.21,14.82,5.83,8.33,3.51,8.35,15.74,4.44,24.62-3.76,8.55-8.69,4.98-13.3,9.47-2.44,2.39-2.76,6.3-4.67,9.02-2.12,3.01-5.98,4.53-8.31,7.55-3.97,5.15-4.8,14.13-8.39,19.72-4.88,7.59-14.34,10.49-13.34,23.41.19,2.46,1.13,5.28,1.13,7.86,0,5.24-2.93,15.19,1.59,18.49.83.62,1.8.81,2.66,1.42,5.09,3.58,6.09,14.12,12.01,16.72,3.9,1.72,9.32.45,8.77,8.69-.44,6.54-9.4,13.33-13.29,16.52-7.55,6.18-22.7,16.87-31.1,19.04-4.42,1.13-3.03-5.06-6.18-7.97-5.17-4.75-11.04.33-16.48-.05-5.65-.39-10.77-5.43-15.4-10.79v2.01c5.14,5.87,10.71,10.93,17.65,10.27,4.49-.42,10.03-4.41,13.99.43,3.2,3.91.85,9.49,7.53,7.23,7.94-2.68,18.86-9.91,26.1-15.36,4.92-3.71,17.7-12.94,18.31-20.97.86-11.22-7.13-8.04-11.36-11.75-3.91-3.43-5.3-11.96-9.69-15.22-.96-.72-2.37-1.05-3.24-1.8-3.3-2.84-.65-12.91-.74-17.32-.04-2.46-.95-5.39-1.12-7.86-.79-11.83,9.11-15.28,13.62-23.01,3.3-5.63,4.12-14.17,8.11-18.94,2.69-3.2,6.6-4.6,8.82-8.61,1.18-2.14,1.65-5.19,3.19-6.95,2.53-2.89,6.22-2.66,9.12-4.29,6.32-3.56,9.57-18.02,6.41-26.12-3.68-9.39-11.24-7-17.36-9.39-6.95-2.71-1.97-10.76-2.64-17.46-.43-4.21-3.35-4.59-2.38-9.19.97-4.58,3.13-6.32.75-11.61-2.54-5.65-7.5-5.46-11.6-3.66-2.48,1.1-5.84,4.67-8.1,1-1.56-2.54-.83-6.14-.9-9.13-5.38-3.12-8.22-12.66-13.95-15.02-4.22-1.73-12.26.15-12.34-8.67-.09-9.1,12.78-18.3,17.1-24.8,3.67-5.52,1.5-12.03,7.17-17.11.58-.52,5.04-3.99,5.35-3.99h16.94l-8.25,3.73c-10.19,5.88-7.62,15.11-13.7,21.83-2.45,2.71-9.42,6.28-9.92,10.6-1.18,10.3,10.4,10.33,14.08,15.41,1.68,2.34,2.34,6.24,3.85,8.78,5.35,9.04,16.93,4.48,23.16,15.47,6.74,11.87-1.67,29.48,14.58,32.73,15.49,3.09,22.91-13.72,36.04-19.2,12.66-5.29,30.9,6.67,38.41-14.08,7.77-21.48-8.65-28.38-7.45-46.94.68-10.32,6.56-19.13,9.4-28.33h7.96c-6.32,10.19-11.73,23.87-7.07,37.26,2.06,5.96,7.52,12.67,7.38,19.58-.11,5.51-3.14,8.43-1.58,15.03.83,3.48,2.52,6.06,4.63,8.03v-1.97c-1.26-1.33-2.29-2.92-2.97-4.81-2.54-7.07.66-9.48,1.02-15.57.54-9.34-7.19-16.64-8.66-25.52-2.01-12.17,3.26-23.22,8.75-31.97l1.86-.04ZM116.6.48v.02l42.36-.09c1.07.09,3.66,3.36,4.14,4.48.54,1.26-.32,4.26-.74,5.67-1.62,5.41-5.84,11.64-6.37,17.43-.89,9.93,6.58,14.11,2.74,24.85-3.7,10.34-12.7,6.54-19.39,7.38-9,1.14-15.24,11.55-25.22,5.23-3.73-2.37-3.44-7.6-5.46-11.66-1.12-2.24-3.93-5.43-5.74-6.58-2.81-1.79-6.34-1.68-8.29-5.42-1.04-2-1.08-3.87-2.72-5.65-1.25-1.37-6.9-3.76-5.38-6.97.7-1.49,4.23-3.78,5.53-5.32,2.19-2.62,2.71-6.17,4.6-8.54,3.02-3.82,8.21-4.08,11.77-6.5,3-2.03,5.09-6.39,8.17-8.33ZM114.11.39c-1.88,2.31-3.7,5.24-5.96,6.85-4.32,3.07-9.85,2.58-13.22,8.41-1.09,1.88-1.79,4.76-3,6.43-2.07,2.82-8.58,5.09-6.24,10.47,1.21,2.76,4.76,3.25,6.23,5.52.73,1.13,1.1,3.33,1.75,4.63,2.88,5.77,10.32,3.73,14.13,12.25,2.14,4.8,1.8,9.57,6.24,12.14,10.65,6.13,16.23-4.21,25.59-5.33,6-.72,13.39,2.11,18.15-4.38,1.82-2.49,3.32-7.53,3.28-11.05-.11-8.36-5.96-11.1-3.24-21.33,1.49-5.6,6.58-13.1,6.69-18.97.05-2.63-1.97-3.66-2.85-5.65h13.09c-1.88,10.09-9.13,19.15-9.4,29.9-.3,12.31,10.35,17.68,5.63,32.71-4.61,14.71-16.94,9.44-25.99,10.42-12.64,1.37-21.89,20.85-35.8,12.04-5.06-3.2-4.05-12.45-6.12-18.54-3.39-9.96-9.7-9.2-15.86-12.61-3.92-2.15-3.67-4.07-5.61-8.33-2.49-5.47-5.91-4.57-9.14-7.76-6.27-6.18,3.9-9.99,6.63-13.8,1.95-2.72,2.61-6.86,4.21-9.86,3.67-6.86,10.94-6.99,16.2-10.18,1.07-.65,4.24-3.98,4.51-3.98h10.1ZM175.04,28.71c-1.23,18.66,15.22,26.46,7.45,46.56-7.34,18.97-24.28,8.19-36.43,12.51-14.45,5.15-21.81,24.2-38.78,19.07-11.62-3.52-6.13-19.55-11.15-30.41-6-13.03-19.22-7.72-24.27-17.48-1.6-3.09-1.81-6.23-4.29-8.95-3.28-3.59-14.65-5.69-12.82-13.7.58-2.56,6.78-6.64,8.62-8.49,6.75-6.78,4.44-16.38,13.84-22.02,1.29-.78,11.25-5.41,12-5.41h12.65s.01-.01.02-.02v.02h-.02c-5.15,5.77-13,4.67-18.05,10.94-2.95,3.63-3.31,9.57-6.6,13.19-2.87,3.16-10.22,5.92-7.17,12.71,1.76,3.91,6.55,4.35,9.07,7.09,1.88,2.04,2.17,5.14,3.58,7.58,3.58,6.22,11.61,4.72,16.34,10.39,7.49,8.96.94,23.14,13.89,26.27,13.01,3.14,18.51-9.88,29.66-13,9.91-2.78,23.42,4.98,29.15-11.17,4.35-12.26-.65-16.79-3.91-26.56-4.71-14.11,5.91-24.64,8.07-37.45h8.54c-3.24,9-8.71,17.98-9.39,28.33ZM168.1,107.49c3.43-.77,6.98-.91,10.4-1.74,3.49-.84,6.78-2.66,10.19-3.6,2.74-.76,5.46-.94,8.2-.79v-1.76c-1.18-.08-2.35-.08-3.5.01-4.8.35-8.92,2.89-13.47,4.17-4.97,1.39-10.17,1.55-15.2,2.98-11.94,3.39-29.24,14.34-32.31,32.22-1.16,6.77-.51,16.92,3.9,21.38,1.93,1.95,2.98.72,4.99.97,4.73.59,4.94,10.88,11.72,7.49,5.65-2.84,12.16-8.96,17.92-12.51,8.22-5.09,17.01-7.66,25.95-8.72v-1.48c-7.68.89-14.97,2.68-20.37,5.36-8.34,4.14-16,11.89-23.79,15.8-6.11,3.06-6.08-6.79-11.15-7.49-1.95-.27-3.18,1.02-4.99-.97-3.28-3.6-4.01-12.58-3.33-17.88,2.49-19.66,22.15-30.58,34.84-33.44ZM164.92,96.89c4.17-.51,8.25-.03,12.39-1.37,3.95-1.28,7.54-4.96,11.57-5.21,2.62-.16,5.33.65,8.01,1.67v-1.59c-2.66-1.04-5.38-1.88-8-1.65-4.74.41-8.59,4.61-13.21,5.69-3.53.83-7.22.46-10.75.89-16.98,2.06-45.9,18.68-44.26,47.07.46,8.08,7.3,29.51,11.97,34.35,3.43,3.54,4.27,1.36,7.53,1.46,2.77.08,3.68,7.58,7.38,9.33,7.94,3.75,14.28-8.76,20.11-14.24,7.81-7.34,18.49-11.74,29.23-13.93v-1.6c-11.08,2.24-22.08,6.83-30.21,14.59-5.36,5.12-12.06,17.76-19.27,13.4-2.94-1.77-3.03-6.61-5.3-8.34-2.66-2.02-5.2,1.63-8.5-1.62-4.87-4.78-11.51-26.29-11.83-34.55-1.01-26.55,27.18-42.42,43.14-44.35ZM196.89,208.19c-1.91,3.98-2.78,8.72-1.79,14.09.39,2.11,1,3.95,1.79,5.56v-3.38c-.26-.81-.47-1.66-.64-2.57-.73-3.95-.4-7.47.64-10.55v-3.15ZM196.89,187.43v-1.23c-12.26,4.23-24.53,13.02-27.53,27.31-4.98,23.7,12.38,27.22,27.53,30.08v-1.76c-6.38-.91-12.79-1.66-18.35-5.03-13.24-8.03-10.22-26.2-.51-36.77,5.74-6.25,12.12-10.28,18.86-12.6ZM196.89,170.26v-1.53c-14.11,4.6-32.08,16.74-38.02,30.77-9.69,22.88.33,51.53,19.24,55.48,5.44,1.13,12.18.26,18.78.29v-1.6c-9.52.06-19.36,2.13-27.82-4.66-13.27-10.67-16.94-34.52-7.82-51.7,6.25-11.77,23.29-22.94,35.64-27.05ZM179.15,266.05c-6.03-.55-11.25-3.94-17.51-2.19-9.57,2.67-8.81,14.37-15.38,20.69-6.4,6.16-11.24,6.15-8.59,19.68,1.79,9.14,5.33,18,8.04,26.66h1.43c-1.38-3.78-2.8-7.57-4.04-11.45-1.71-5.39-5.76-17.88-4.94-23.34.89-6.02,7.91-8.49,10.84-12.47,3.05-4.13,4.36-11.19,7.82-15.05,6.5-7.28,15.07-1.62,22.33-.96,5.57.5,11.89-.55,17.74.02v-1.59c-5.9-.57-12.12.51-17.74,0ZM186.83,281.29c-5.65-.48-11.97-4.11-17.49-.6-4.18,2.66-4.98,8.32-7.53,12.7-4.06,6.99-10.96,5.57-8.77,17.88,1.18,6.65,3.95,13.27,5.77,19.62h1.43c-2.03-5.81-4.27-11.69-5.61-17.89-2.51-11.64.9-10.14,6.15-15.94,4.15-4.59,4.74-13.68,10.49-15.69,5.14-1.79,10.21,1.01,15.3,1.46,3.31.29,6.84-.09,10.32-.05v-1.47c-3.44-.05-6.92.25-10.06-.02Z"/>
      <path class="cls-1" d="M137.17,330.86h0s-1.13,0-1.13,0c-3.96-17.6-8.08-37.99-22.88-43.02-30.74-10.43-53.74,47.85-85.68,28.9-3.63-2.16-7.05-5.68-11.15-6.19-3.56-.44-7.13,1.24-10.81.77-1.69-.22-3.32-.86-4.89-1.82v-1.76c1.6,1.03,3.23,1.73,4.92,1.97,2.98.42,5.4-.61,8.21-.75,8.37-.43,14.26,8.53,22.79,9.78,28.41,4.15,49.03-43.34,77.97-32,14.55,5.71,18.76,26.45,22.65,44.11Z"/>
      <path class="cls-1" d="M21.05,330.9l-.02-.03h-1.13c-2.03-3.47-4.28-6.15-7.41-7.59-3.8-1.75-7.84-1.85-11.86-2.41v-1.5c7.77,1.19,16.21.86,20.42,11.53Z"/>
      <path class="cls-1" d="M196.89,296.6v1.54c-.96.01-1.94,0-2.92-.08-4.03-.34-8.1-2.58-12.11-.97-4.68,1.88-4.56,7.37-7.4,11.32-1.87,2.62-5.34,3.5-5.13,8.2.17,4.08,2.87,10.39,4,14.28h-1.43c-1.05-4.71-4.97-13.13-3.19-17.86.99-2.62,3.9-4.12,5.33-6.37,1.27-1.97,1.95-4.9,3.15-6.99,4.49-7.81,11.1-3.65,17.06-3.17.88.07,1.76.1,2.64.1Z"/>
      <path class="cls-1" d="M3.66,330.87h-1.7c-.42-.63-.86-1.19-1.33-1.69v-2.15c1.11.97,2.13,2.23,3.03,3.84Z"/>
      <path class="cls-1" d="M3.67,330.87v.02s-.01-.01-.01-.02h.01Z"/>
      <path class="cls-1" d="M125.79,330.87h-1.42c-2.76-11.47-6.49-23.26-15.5-27.36-13.42-6.11-26.81,4.54-38.21,13.22-5.75,4.38-11.46,9.04-16.89,14.13h-2.28c6.98-6.22,14.12-12.22,21.45-17.64,11.28-8.37,23.93-17.48,36.98-10.78,9.49,4.88,12.41,16.52,15.87,28.42h0Z"/>
      <path class="cls-1" d="M196.89,310.66v1.58c-.82-.1-1.6-.15-2.35-.15-4.53,0-4.75,4.01-6.86,7.81-.63,1.12-2.12,2.54-2.47,3.65-.66,2.11.71,5.29,1.21,7.32h-1.42c-.37-3.48-2.14-5.77-.25-9.12.51-.91,1.15-1.2,1.66-2.01,2.84-4.45,2.27-9.26,8.4-9.21.59,0,1.29.05,2.08.13Z"/>
      <path class="cls-1" d="M111.27,330.87h-1.14c-3.04-8.07-7.25-14.83-14.37-15.02-8.53-.22-15.83,8.53-22.34,15.02h-1.71c10.52-11.95,26.02-26.88,36.83-6.59,1.06,1.99,2.07,4.31,2.73,6.59h0Z"/>
      <path class="cls-1" d="M146.57,216.62c.24-7.1,2-12-2.71-17.38-.83-.96-2.16-1.68-2.85-2.73-.94-1.41-.98-3.54-2.31-4.65-3.01-2.51-7.17,1.34-10.93-2.59-7.19-7.52-4.3-24.61-17.98-22.35-14.57,2.4-20.15,20.77-28.69,33.3-6.7,9.82-17.17,11.8-12.53,28.9,4.75,17.52,16.62,15.17,23.18,27.17,1.47,2.68,2.27,6.41,3.87,9.14,4.75,8.11,12.65,4.91,19.17,5.72,7.41.94,13.85,7.2,21.68,3.49,5.89-2.79,13.75-15.71,14.58-24.14,1.2-12.17-4.88-21.91-4.48-33.88ZM149.91,250.5c-.66,6.67-7.05,17.57-11.23,20.92-8.53,6.85-15.45-.81-23.89-1.83-3.41-.41-7.11.33-10.49-.06-9.81-1.12-8.36-11.04-14.25-17.95-7.46-8.75-16.34-8.08-20.35-22.85-3.74-13.77,2.1-15.6,8.53-22.7,10.64-11.76,15.74-34.82,31.55-37.57h-.01c12.6-2.17,10.17,13.97,16.86,21.59,3.65,4.14,5.93,1.92,9.83,2.53,2.53.4,2.02,1.92,3.15,3.89,1.84,3.23,4.8,4.03,5.84,8.01,1.14,4.39.15,7.53-.02,11.75-.48,12.25,5.67,22.18,4.48,34.27Z"/>
      <path class="cls-1" d="M80.43,132.38c-8.44-7.33-1.7-28.61-7.01-36.48-2.8-4.16-5.64.12-9.4-1.56-6.16-2.76-8.02-13.25-11.81-19.33-4.35-6.99-11-9.68-17.57-9.26h-.01c-9.71.63-22.3,8.26-26.65,20.85-6.19,17.91,2.79,32.88-1.46,49.56-1.49,5.85-4.57,15.1-5.89,22.62C.23,161.06,0,163.19,0,165.01c0,1.03.23,2.24.63,3.55,1.96,6.59,8.02,15.87,10.86,19.36,14.88,18.22,36.77,16.24,49.95-4.13,4.07-6.27,7.23-14.55,11.82-20.11,4.92-5.98,16.58-12.28,16.35-22.81-.17-7.52-6.19-5.89-9.18-8.49ZM74.01,160.8c-5.38,5.82-8.49,14.05-12.84,21.04-14.66,23.54-38.13,22.15-52.8-.57-2.27-3.51-7.19-11.67-7.23-16.26-.06-8.72,5.25-22.26,7.1-30.8,3.2-14.87-4.85-29.32.5-46.18,3.96-12.44,16.49-20.11,25.9-20.72v.02c4.73-.31,10.17,1.2,13.98,5.18,6.14,6.4,8.4,22.86,17,23.96,2.49.31,4.51-2.24,6.53.02,5.58,6.25-1.7,30.53,8.19,37.59,2.89,2.05,8.07.85,8.11,7.15.06,8.86-10.07,14.82-14.44,19.57Z"/>
      <path class="cls-1" d="M56.08,264.23c-2.74-2.55-6.39-2.78-9.06-5.15-4.93-4.39-3.67-13.69-4.39-20.54-1.42-13.48-8.37-21.33-16.22-28.14-5.98-5.2-15.93-13.41-23.09-12.23h.01c-.9.16-1.8.48-2.7.95v1.64c.89-.52,1.79-.87,2.69-1.04h0c6.56-1.2,15.68,6.24,21.22,10.92,7.84,6.62,15.53,14.43,16.96,27.9.81,7.6-.6,16.98,4.9,21.8,2.69,2.36,6,2.6,8.52,4.7,10.33,8.62-7.15,19.3-12.95,19.38-5.65.09-7.76-6.11-12.33-6.96-7.64-1.43-9.91,2.48-17.8-3.7-3.35-2.62-7.28-6.11-11.21-9.79v1.89c6.22,5.76,12.59,11.16,15.63,12.39,4.85,1.98,8.71-.14,13.38.78,4.33.87,6.2,7.04,12.32,6.96,6.63-.08,24.69-11.92,14.12-21.76Z"/>
      <path class="cls-1" d="M154.53,127.92c11.89-9.48,28.36-14.69,42.36-15.58v-1.57c-12.15.77-25.69,4.73-36.57,11.43-4.48,2.76-15.01,8.96-11.82,17.93.61,1.74,2.27,2.59,2.87,3.87.85,1.84.39,4.52,1.73,6.22,1.61,2.06,4.29,1.45,6.18.64,4.52-1.94,9.87-6.51,14.54-8.97,8.76-4.62,14.93-4.88,23.07-5.29v-1.44c-4.74.03-9.46.03-14.18,1.36-8.24,2.34-14.73,7.79-22.29,11.99-1.91,1.06-4.94,2.84-6.61.34-.99-1.5-.54-3.42-1.31-5.24-.81-1.93-2.67-2.6-3.18-5.01-1.08-5.09,2.49-8.5,5.21-10.68Z"/>
      <path class="cls-1" d="M150.85,8c-3.84-5.12-9.32-7.33-14.59-6.71h0c-4.52.53-12.11,4.12-16.07,7.23-1.39,1.1-2.64,2.86-4.08,3.79-2.77,1.77-6.02,1.72-8.41,4.86-.71.95-1.36,2.81-2.11,3.75-1.13,1.45-4.5,3.13-4.53,5.45-.04,2.49,2.25,3.38,3.1,5.08.4.79.5,1.82.9,2.67,1.1,2.34,2.77,2.54,4.31,3.85,5.61,4.81,8.2,10.21,15.46,11.2,2.8.39,5.26-.6,7.93-.74,5.47-.3,14.15,2.07,15.68-8.17.66-4.46-.66-6.06-.99-9.63-.78-8.2,9.59-14.32,3.4-22.63ZM146.12,43.35c-2.64,5.06-9.36,3.32-13.37,3.52-2.55.13-5,1.08-7.64.74-7.39-.91-9.42-6.29-15.07-10.95-1.06-.87-2.77-1.35-3.59-2.5-.76-1.07-.87-2.78-1.44-3.88-.65-1.29-2.2-2.06-2.82-3.57-.15-1.09,3.04-3.49,3.68-4.24,1.38-1.63,2.22-4.02,3.78-5.35,2.09-1.79,4.93-2.01,7.13-3.49,1.39-.92,2.42-2.52,3.68-3.55,3.72-3.02,11.52-6.7,15.8-7.23h0c4.96-.6,11.9,2.04,14.86,7.91,2.51,4.97-4,11.8-4.71,16.58-.88,5.8,2.98,9.75-.29,16.01Z"/>
      <path class="cls-1" d="M137.49,222.05c-.38-4.39.85-10.18-1.31-13.83-.9-1.52-2.39-2.33-3.29-3.69-1.22-1.82-.92-3.26-3.29-3.7-2.61-.48-4.09.96-6.51-1.61-4.83-5.11-3.72-16.28-12.73-15.11v.02c-12.44,1.62-14.98,16.85-22.59,26.05-4.73,5.71-9.31,6.78-6.81,17.57,2.67,11.54,10.59,10.69,15.05,18.79,1.02,1.84,1.68,4.42,2.87,6.23,3.9,5.94,10.25,3.64,15.34,4.33,5.46.76,9.83,5.28,15.7,2.71,4.41-1.93,10.25-11.2,10.88-17.5.78-7.8-2.72-13.31-3.31-20.26ZM139.71,241.99c-.56,5.77-5.88,14.2-9.86,16.15-5.47,2.68-10.3-1.92-15.63-2.6-3.95-.49-9.79,1.02-13.18-2.22-2.19-2.1-2.92-5.65-4.46-8.34-4.42-7.78-12.17-6.82-14.64-18.19-2.28-10.48,4.16-11.61,8.41-17.78,6.26-9.09,9.01-21.76,20-23.34v.02c9.32-1.34,7.6,14.93,14.79,16.59,1.61.37,4.15-.47,5.47.7.65.58,1.06,2.26,1.71,3.12.74.98,2,1.56,2.69,2.57,2.18,3.14,1.04,9.3,1.35,13.38.5,6.63,4.04,12.84,3.35,19.94Z"/>
      <path class="cls-1" d="M75.33,138.96c-.52-3.49-3.06-3.38-4.63-4.96-4.8-4.87-.64-22.29-4.83-28.93-2.05-3.24-4.04-1.04-6.54-1.57-4.65-.98-7.5-11.31-11.12-15.2-3.12-3.34-7.71-4.56-11.58-4.2v.02c-9.58.91-19.46,9.46-20.4,23.56-.53,8.05,1.22,13.72,1.64,21.09.5,9.17-5.42,20.69-5.4,30.03.01,4.8,6.29,15.07,9,18.15,8.6,9.77,21.49,9.15,30.28.18,5.72-5.84,8.1-15.11,13.27-21.25,3.59-4.28,11.54-8.8,10.31-16.92ZM62.86,156.44c-2.91,4.04-5,9.74-7.68,14.06-8.13,13.06-22.4,16.34-32.58,5.67-2.58-2.69-8.98-12.96-9-17.37-.01-5.59,3.17-15.35,4.38-20.99,2.37-11.05-1.31-18.75-.65-29.79.79-13.22,10.31-21.49,19.3-22.34v-.02c3.1-.29,6.39.39,9.17,2.42,6.37,4.64,6.92,17.11,15.52,17.01,1.71-.01,2.18-1.26,3.7,1.15,3.84,6.14-.23,22.72,4.54,28.54,1.72,2.1,4.79,1.6,4.72,6.05-.1,6.25-8.38,11.38-11.42,15.61Z"/>
      <path class="cls-1" d="M41.4,256.24c-.95-4.36-6.25-4.44-7.82-11.53-1.48-6.68-.79-10.54-4.56-16.39-3.81-5.89-16.89-14.82-22.57-13.76-2.16.41-4.11,2.03-5.82,4.26v2.2c1.69-2.53,3.65-4.45,5.82-4.89,4.45-.89,14.3,5.44,18.09,8.96,7.03,6.54,5.81,10.71,8.03,20.24,1.43,6.23,3.2,5.59,6.26,8.98,5.65,6.27-4.59,12.61-8.84,12.13-2.5-.3-3.92-2.85-6.21-3.59-2.36-.76-5,0-7.37-1.22-4.71-4.26-10.72-8.42-15.78-12.9v1.23c4.18,3.73,8.26,7.93,12.46,11.15,4.26,3.28,5.69,2.14,10.01,3.06,2.03.44,3.45,2.91,5.39,3.54,4.49,1.48,14.65-3.49,12.91-11.47Z"/>
      <path class="cls-1" d="M194.87,122.97c-5.67-4.61-18.21-.71-23.73,3.53-2.29,1.76-3.16,4.94.03,5.56,5.57-1.44,12-4.35,17.66-4.35,1.46,0,6.53,1.23,7.48-.06,1.11-1.52-.4-3.83-1.44-4.68ZM188.29,126.18c-2.53.06-6.19,1.04-8.75,1.68-2.29.57-6.37,2.58-8.38,2.6-1.49.03-.76-1.44.08-2.25,2.59-2.52,12.11-5.83,15.33-5.92,2.37-.08,8.29.6,8.96,4.28-.46.47-6.14-.41-7.24-.39Z"/>
      <path class="cls-1" d="M137.94,12.83c-4.18-2.92-6.82.98-10.45,2.99-3.46,1.92-11.43,3.14-11.4,9.77.03,6.51,7.53-.27,9.88,2.68,2.03,2.55,1.87,6.83,5.65,6.93,4.66.11,3.86-5.17,5.84-8.44.89-1.47,3.23-2.77,3.77-4.59.99-3.32-1.17-7.87-3.29-9.34ZM136.2,26.59c-1.56,3.16-.99,7.48-4.88,7.03-2.47-.28-2.86-4.03-4.38-6.09-3.13-4.29-6.07.74-9.56-.94-.62-6.46,6.85-7.3,10.19-9.1,2.17-1.17,4.69-3.78,6.98-4.11h0c2.23-.33,4.32,1.57,5.23,4.33,1.82,5.44-1.81,5.31-3.58,8.88Z"/>
      <path class="cls-1" d="M128.48,223.45c-.54-2.9-.16-6.31-1.7-8.62-.18-.28-2.69-3.27-2.89-3.45-1.28-1.17-2.58-.56-3.88-.92-2.96-.81-4.07-8.15-7.77-8.86-.89-.17-2.14-.1-3.03.07h-.01c-6.33,1.18-7.22,7.35-10.6,12.79-2.94,4.72-7.3,5.68-4.84,13.67,1.19,3.89,4,4.62,5.8,7.27.88,1.28,1.3,3.09,2.16,4.45,3.08,4.81,7.88,2.55,11.93,3.17,2.87.43,5.4,2.73,8.54,2.25,3.52-.53,8.12-6.66,8.4-11.53.21-3.51-1.51-7.01-2.11-10.29ZM113.65,241.47c-3.11-.45-8.38,1.11-10.78-2.01-.89-1.15-1.23-2.99-1.98-4.3-2.25-3.9-6.93-5.01-6.72-11.51.1-3.16,3.54-5.38,5-7.62,3.28-5.05,3.99-11.49,10.03-12.8h.01c5.74-1.24,5.12,3.37,8.35,7.1,2.26,2.63,3.43,1.03,5.31,2.08.35.19,3.22,3.72,3.45,4.26.77,1.79.65,4.62,1.04,6.78,1.22,6.85,4.25,10.37-.56,16.81-4.95,6.62-7.97,1.95-13.15,1.21Z"/>
      <path class="cls-1" d="M60.31,134.57c-.54-6.03,1.19-15.16-1.98-20.32-1.56-2.53-3.7-1.22-5.79-2.6-3.08-2.01-4.43-6.59-7.89-8.32-2.01-1.02-4.18-1.23-6.31-.87v-.02c-6.79,1.14-11.88,8.12-11.92,17.67-.01,4.57,1.46,10.15,1.39,14.45-.11,6.69-4.01,14.41-2.18,21.04,4.49,16.19,18.2,15.88,25.24,3.1,1.33-2.39,2.4-5.43,3.76-7.72,1.95-3.25,6.85-6.98,6.85-11.34,0-2.03-1.01-3.29-1.17-5.07ZM54.2,149.23c-2.55,3.91-3.83,9.06-6.84,12.49-7.3,8.28-18.21,5.56-20.93-7.59-1.04-5.03,2.35-13.81,2.5-19.27.19-7.22-2.52-13.07-.51-21,1.32-5.18,6.07-9.17,9.91-9.84h.01c9.46-1.67,9.51,8.28,15.65,9.96,1.6.44,2.21-.69,3.48,1.46,2.91,4.92,1.19,13.72,1.71,19.54.15,1.65,1.15,2.97,1.15,4.68,0,3.65-4.42,6.94-6.13,9.57Z"/>
      <path class="cls-1" d="M19.52,231.97c-2.33-1.56-6.24-2.22-8.8-1.77h0c-3.45.61-6.26,3.79-5.56,8.99.52,3.89,5.64,4.58,8.09,6.46,2.91,2.22,5.27,7.15,9.06,3.58,4.85-4.56,1.51-14.38-2.79-17.26ZM13.16,243.82c-1.37-.96-5.76-2.55-6.36-3.39-.94-1.32-.61-4.33.04-5.79.73-1.63,2.55-2.64,3.88-2.88,2.94-.56,7.75.47,10.03,3.21,2.17,2.6,4.04,8.54,1.86,11.93-3.26,5.09-6.48-1.01-9.45-3.08Z"/>
      <path class="cls-1" d="M109.45,218.8c-3.09.35-1.86,1.58-2.6,3.87-.56,1.75-3.47,3.5-1.47,6.51,1.77,2.67,4.88-.63,6.73-.48,1.72.13,2.9,1.68,4.96,1.35,1.38-.21,3.31-1.9,3.22-4-.17-4.42-8.17-7.54-10.84-7.25ZM118.49,227.69c-2.23,2.3-4.35-.57-6.51-.57-1.41,0-5.17,2.84-5.99.62-.65-1.74,2.84-4.41,2.18-6.97h.01c2.4-1.02,5.69.33,7.93,1.71,1.3.79,4.26,3.27,2.38,5.21Z"/>
      <path class="cls-1" d="M42.32,120.04c-8.73,1.38-4.79,11.72-4.48,19.21.16,3.86-1.8,12.87,2.4,13.51,5.37.8,4.86-8.21,6.74-12.25,1.6-3.44,5.24-3.77,5.65-8.67.72-8.53-4.76-12.67-10.31-11.8ZM51.49,131.86c-.3,3.48-4.16,4.66-5.53,8.02-1.38,3.36-1.65,11.79-5.43,11.33-3.08-.38-1.43-8.95-1.55-11.96-.27-6.53-4.06-16.28,3.33-17.65,4.93-.91,9.86,2.61,9.18,10.26Z"/>
    </g>
  </g>
</svg>